<?xml version="1.0" encoding="UTF-8" standalone="no"?>
<!-- Created with Inkscape (http://www.inkscape.org/) -->

<svg
   xmlns:dc="http://purl.org/dc/elements/1.1/"
   xmlns:cc="http://creativecommons.org/ns#"
   xmlns:rdf="http://www.w3.org/1999/02/22-rdf-syntax-ns#"
   xmlns:svg="http://www.w3.org/2000/svg"
   xmlns="http://www.w3.org/2000/svg"
   xmlns:sodipodi="http://sodipodi.sourceforge.net/DTD/sodipodi-0.dtd"
   xmlns:inkscape="http://www.inkscape.org/namespaces/inkscape"
   version="1.1"
   width="902.03253"
   height="294.88062"
   id="svg3400"
   inkscape:version="0.48.2 r9819"
   sodipodi:docname="civ1_logo_v1.svg">
  <sodipodi:namedview
     pagecolor="#ffffff"
     bordercolor="#666666"
     borderopacity="1"
     objecttolerance="10"
     gridtolerance="10"
     guidetolerance="10"
     inkscape:pageopacity="0"
     inkscape:pageshadow="2"
     inkscape:window-width="1920"
     inkscape:window-height="1028"
     id="namedview5907"
     showgrid="false"
     inkscape:zoom="0.76493916"
     inkscape:cx="670.59739"
     inkscape:cy="45.525614"
     inkscape:window-x="-8"
     inkscape:window-y="-8"
     inkscape:window-maximized="1"
     inkscape:current-layer="svg3400" />
  <defs
     id="defs3402" />
  <metadata
     id="metadata3405">
    <rdf:RDF>
      <cc:Work
         rdf:about="">
        <dc:format>image/svg+xml</dc:format>
        <dc:type
           rdf:resource="http://purl.org/dc/dcmitype/StillImage" />
        <dc:title />
      </cc:Work>
    </rdf:RDF>
  </metadata>
  <g
     id="g3087">
    <path
       inkscape:connector-curvature="0"
       style="color:#000000;fill:none;stroke:#000000;stroke-width:2;stroke-linecap:butt;stroke-linejoin:miter;stroke-miterlimit:4;stroke-opacity:1;stroke-dasharray:none;stroke-dashoffset:0;marker:none;visibility:visible;display:inline;overflow:visible;enable-background:accumulate"
       id="path3243"
       d="m 59.26826,50.41213 303.04747,0" />
    <path
       inkscape:connector-curvature="0"
       style="color:#000000;fill:none;stroke:#000000;stroke-width:2;stroke-linecap:butt;stroke-linejoin:miter;stroke-miterlimit:4;stroke-opacity:1;stroke-dasharray:none;stroke-dashoffset:0;marker:none;visibility:visible;display:inline;overflow:visible;enable-background:accumulate"
       id="path3243-0"
       d="m 560.19462,50.40097 296.7082,0" />
    <path
       inkscape:connector-curvature="0"
       style="color:#000000;fill:#000000;stroke:#000000;stroke-width:1.20000005;stroke-linecap:butt;stroke-linejoin:miter;stroke-miterlimit:4;stroke-opacity:1;stroke-dasharray:none;stroke-dashoffset:0;marker:none;visibility:visible;display:inline;overflow:visible;enable-background:accumulate"
       id="path3243-4-8"
       d="m 59.26826,46.15591 303.04747,0" />
    <path
       inkscape:connector-curvature="0"
       style="color:#000000;fill:#000000;stroke:#000000;stroke-width:1.20000005;stroke-linecap:butt;stroke-linejoin:miter;stroke-miterlimit:4;stroke-opacity:1;stroke-dasharray:none;stroke-dashoffset:0;marker:none;visibility:visible;display:inline;overflow:visible;enable-background:accumulate"
       id="path3243-4-8-5"
       d="m 560.19462,46.15591 296.7032,0" />
    <path
       inkscape:connector-curvature="0"
       style="font-size:34.3842926px;font-style:normal;font-variant:normal;font-weight:normal;font-stretch:normal;line-height:125%;letter-spacing:0px;word-spacing:0px;fill:#000000;fill-opacity:1;stroke:#000000;stroke-width:0.1;stroke-miterlimit:4;stroke-dasharray:none;display:inline;font-family:Times Ten LT Std Roman;-inkscape-font-specification:Times Ten LT Std Roman"
       id="path4107"
       d="m 384.85891,51.14672 0.60955,0 c 0.0381,-0.29012 0.13715,-0.50509 0.29717,-0.64489 0.16,-0.13981 0.33524,-0.20931 0.52574,-0.2085 0.32827,0.0468 0.97465,0.23435 1.93915,0.56246 0.9645,0.3281 2.01472,0.51559 3.15066,0.56246 1.87057,-0.0485 3.4097,-0.77581 4.6174,-2.18195 1.20768,-1.40616 1.83248,-3.20021 1.8744,-5.38217 -0.0546,-1.88213 -0.61593,-3.48062 -1.68391,-4.79546 -1.06801,-1.31481 -2.31506,-2.45751 -3.74116,-3.42809 -1.69407,-1.18633 -3.0224,-2.27568 -3.98499,-3.26809 -0.96261,-0.99237 -1.45279,-2.10112 -1.47056,-3.32627 0.0241,-1.22672 0.35684,-2.22558 0.99815,-2.99656 0.6413,-0.77092 1.44643,-1.16853 2.41538,-1.1928 1.53595,0.0687 2.78427,0.77502 3.74497,2.11893 0.96068,1.34395 1.65278,2.91334 2.07631,4.70818 l 0.60956,0 -0.701,-7.99081 -0.60956,0 c 0.0508,0.31196 0.0406,0.55117 -0.0305,0.71762 -0.0711,0.16649 -0.23367,0.25054 -0.48764,0.25213 -0.61339,-0.0517 -1.23818,-0.25857 -1.8744,-0.62064 -0.63623,-0.36202 -1.53533,-0.5689 -2.6973,-0.62065 -1.722,0.021 -3.16208,0.66754 -4.32024,1.93952 -1.15816,1.27203 -1.7601,3.04345 -1.80581,5.31428 0.0222,1.70275 0.55685,3.16547 1.6039,4.38815 1.04703,1.22272 2.47315,2.57876 4.27833,4.06814 1.40261,1.18635 2.50616,2.2951 3.31067,3.32627 0.80447,1.03119 1.21466,2.08176 1.23054,3.15172 -0.0311,1.35363 -0.42607,2.41874 -1.18483,3.19535 -0.75878,0.77661 -1.6947,1.17261 -2.80777,1.18796 -1.64645,-0.0825 -2.98621,-0.83884 -4.01928,-2.26924 -1.03308,-1.43039 -1.84709,-3.04019 -2.44205,-4.8294 l -0.60955,0 z" />
    <path
       inkscape:connector-curvature="0"
       style="font-size:34.3842926px;font-style:normal;font-variant:normal;font-weight:normal;font-stretch:normal;line-height:125%;letter-spacing:0px;word-spacing:0px;fill:#000000;fill-opacity:1;stroke:#000000;stroke-width:0.1;stroke-miterlimit:4;stroke-dasharray:none;display:inline;font-family:Times Ten LT Std Roman;-inkscape-font-specification:Times Ten LT Std Roman"
       id="path4109"
       d="m 400.08713,34.7384 0.39621,0 c 0.69084,-0.003 1.17594,0.1681 1.45532,0.51397 0.27938,0.3459 0.41399,0.88573 0.40384,1.6195 l 0,10.55097 c 0.007,1.10957 -0.167,1.82881 -0.52194,2.15771 -0.35494,0.32892 -0.93275,0.47599 -1.73343,0.44125 l 0,0.77581 7.19279,0 0,-0.77581 c -0.80069,0.0347 -1.3785,-0.11237 -1.73343,-0.44125 -0.35495,-0.3289 -0.52892,-1.04814 -0.52193,-2.15771 l 0,-15.2446 c -0.75053,0.32407 -1.54295,0.65541 -2.37728,0.99401 -0.83434,0.33861 -1.68772,0.60207 -2.56015,0.79035 z m 1.85916,-9.58122 c 0.0114,0.59644 0.17143,1.09101 0.48002,1.48373 0.30859,0.39278 0.69718,0.59644 1.16578,0.61096 0.4686,-0.0146 0.85718,-0.21818 1.16579,-0.61096 0.30858,-0.39272 0.46858,-0.88729 0.48002,-1.48373 -0.0114,-0.59637 -0.17144,-1.09094 -0.48002,-1.48372 -0.30861,-0.39273 -0.69719,-0.59638 -1.16579,-0.61096 -0.4686,0.0146 -0.8572,0.21823 -1.16578,0.61096 -0.30859,0.39278 -0.4686,0.88735 -0.48002,1.48372 z" />
    <path
       inkscape:connector-curvature="0"
       style="font-size:34.3842926px;font-style:normal;font-variant:normal;font-weight:normal;font-stretch:normal;line-height:125%;letter-spacing:0px;word-spacing:0px;fill:#000000;fill-opacity:1;stroke:#000000;stroke-width:0.1;stroke-miterlimit:4;stroke-dasharray:none;display:inline;font-family:Times Ten LT Std Roman;-inkscape-font-specification:Times Ten LT Std Roman"
       id="path4111"
       d="m 411.74028,41.02244 c -0.0197,-1.79647 0.28636,-3.4984 0.91815,-5.10578 0.63178,-1.60736 1.70739,-2.4656 3.22685,-2.57472 0.79559,-10e-4 1.49023,0.23439 2.08393,0.70793 0.59367,0.47358 1.06735,1.19444 1.42103,2.16257 0.073,0.21335 0.11746,0.55277 0.13334,1.01824 0.0159,0.46549 0.0222,0.94067 0.0191,1.42554 l 0,8.76662 c -0.0235,0.31114 -0.32701,0.61014 -0.91053,0.89703 -0.58354,0.28689 -1.30611,0.44043 -2.16774,0.46064 -1.63693,-0.0978 -2.83573,-0.93986 -3.59639,-2.52622 -0.76069,-1.58636 -1.13658,-3.33031 -1.12769,-5.23185 z m 7.80235,-7.02105 c -0.56385,-0.61901 -1.12769,-1.07804 -1.69152,-1.37707 -0.56386,-0.29898 -1.21913,-0.44768 -1.96583,-0.44608 -1.9779,0.0865 -3.59957,1.09665 -4.86503,3.0305 -1.26548,1.93387 -1.91948,4.27261 -1.96202,7.0162 0.048,2.6751 0.46676,4.65627 1.25636,5.94355 0.78961,1.28725 1.66217,2.12197 2.61771,2.50412 0.95555,0.38216 1.7062,0.55312 2.25199,0.5129 0.82226,0.0194 1.60072,-0.16487 2.33537,-0.55277 0.73463,-0.3879 1.42928,-1.09582 2.08393,-2.12377 l 0.061,0 0,2.67654 c 0.71748,-0.32972 1.44642,-0.63034 2.18679,-0.90188 0.74035,-0.27154 1.48452,-0.51396 2.23251,-0.72732 l 0,-0.7758 c -0.83752,0.0243 -1.36454,-0.16002 -1.58104,-0.55276 -0.21653,-0.39276 -0.30924,-1.13947 -0.27811,-2.24015 l 0,-22.9251 c -0.72387,0.21257 -1.49344,0.48572 -2.30871,0.81945 -0.81529,0.33379 -1.63058,0.61664 -2.44585,0.84854 l 0,0.77581 0.33526,0 c 0.44572,-0.0169 0.84194,0.0751 1.18864,0.27638 0.34667,0.20125 0.52954,0.6134 0.5486,1.23645 z" />
    <path
       inkscape:connector-curvature="0"
       style="font-size:34.3842926px;font-style:normal;font-variant:normal;font-weight:normal;font-stretch:normal;line-height:125%;letter-spacing:0px;word-spacing:0px;fill:#000000;fill-opacity:1;stroke:#000000;stroke-width:0.1;stroke-miterlimit:4;stroke-dasharray:none;display:inline;font-family:Times Ten LT Std Roman;-inkscape-font-specification:Times Ten LT Std Roman"
       id="path4113"
       d="m 440.63603,24.80808 c 1.28026,-0.0102 2.0802,0.38874 2.39982,1.19765 0.31961,0.80896 0.45475,2.09066 0.40544,3.84509 l 0,14.74033 c 0.0585,1.93306 -0.0585,3.31335 -0.35066,4.14087 -0.29222,0.82753 -1.11041,1.25746 -2.4546,1.28978 l 0,0.77581 6.92549,0 0,-0.77581 c -1.3442,-0.0323 -2.1624,-0.46225 -2.45462,-1.28978 -0.29221,-0.82752 -0.40909,-2.20781 -0.35065,-4.14087 l 0,-15.51614 0.0585,0 7.7729,21.7226 0.49676,0 7.71446,-22.61478 0.0585,0 0,17.18413 c 0.0518,1.46676 -0.081,2.60623 -0.39814,3.41839 -0.3172,0.81218 -1.12932,1.22433 -2.43634,1.23645 l 0,0.77581 8.85409,0 0,-0.77581 c -1.36553,-0.0363 -2.22146,-0.40973 -2.56784,-1.12007 -0.34641,-0.71035 -0.49374,-1.8886 -0.44197,-3.53477 l 0,-16.71864 c -0.0189,-1.48371 0.19419,-2.50196 0.63922,-3.05474 0.44499,-0.55274 1.23519,-0.81458 2.37059,-0.7855 l 0,-0.77581 -5.93195,0 -7.21769,20.40372 -7.24691,-20.40372 -5.84429,0 z" />
    <path
       inkscape:connector-curvature="0"
       style="font-size:34.3842926px;font-style:normal;font-variant:normal;font-weight:normal;font-stretch:normal;line-height:125%;letter-spacing:0px;word-spacing:0px;fill:#000000;fill-opacity:1;stroke:#000000;stroke-width:0.1;stroke-miterlimit:4;stroke-dasharray:none;display:inline;font-family:Times Ten LT Std Roman;-inkscape-font-specification:Times Ten LT Std Roman"
       id="path4115"
       d="m 470.92028,38.42349 c 0.0384,-1.28088 0.38535,-2.43328 1.04101,-3.45719 0.65565,-1.02389 1.47751,-1.56534 2.46556,-1.62436 1.17981,0.0348 2.00532,0.52773 2.47652,1.47889 0.47118,0.95118 0.69765,2.15207 0.67939,3.60266 z m 9.46774,1.1637 c -0.034,-2.14153 -0.52112,-3.90002 -1.46107,-5.27548 -0.93997,-1.37543 -2.21596,-2.08658 -3.82801,-2.13347 -2.13561,0.10266 -3.74521,1.15807 -4.82884,3.16626 -1.08363,2.00822 -1.62665,4.35342 -1.62909,7.0356 0.014,2.5731 0.56312,4.671 1.64736,6.29373 1.08423,1.62273 2.61958,2.45996 4.60602,2.51168 1.46655,-0.0735 2.72671,-0.77016 3.78052,-2.08983 1.05379,-1.31968 1.86833,-2.82119 2.44365,-4.50453 l -0.49677,-0.42669 c -0.48643,1.05219 -1.13538,1.98316 -1.94688,2.7929 -0.81151,0.80975 -1.84765,1.23644 -3.10842,1.28008 -1.58954,-0.0679 -2.77178,-0.88248 -3.54675,-2.44379 -0.77499,-1.5613 -1.16095,-3.46203 -1.1579,-5.70219 l 0,-0.50427 z" />
    <path
       inkscape:connector-curvature="0"
       style="font-size:34.3842926px;font-style:normal;font-variant:normal;font-weight:normal;font-stretch:normal;line-height:125%;letter-spacing:0px;word-spacing:0px;fill:#000000;fill-opacity:1;stroke:#000000;stroke-width:0.1;stroke-miterlimit:4;stroke-dasharray:none;display:inline;font-family:Times Ten LT Std Roman;-inkscape-font-specification:Times Ten LT Std Roman"
       id="path4117"
       d="m 482.75514,34.7384 0.37989,0 c 0.66234,-0.003 1.12745,0.1681 1.39532,0.51397 0.26786,0.3459 0.39691,0.88573 0.38718,1.6195 l 0,10.55097 c 0.007,1.10957 -0.16011,1.82881 -0.50042,2.15771 -0.34031,0.32892 -0.8943,0.47599 -1.66197,0.44125 l 0,0.77581 6.89627,0 0,-0.77581 c -0.76769,0.0347 -1.32167,-0.11237 -1.66198,-0.44125 -0.34032,-0.3289 -0.50712,-1.04814 -0.50042,-2.15771 l 0,-15.2446 c -0.71958,0.32407 -1.47934,0.65541 -2.27926,0.99401 -0.79995,0.33861 -1.61814,0.60207 -2.45461,0.79035 z m 1.78251,-9.58122 c 0.0109,0.59644 0.16437,1.09101 0.46024,1.48373 0.29586,0.39278 0.66843,0.59644 1.11771,0.61096 0.44929,-0.0146 0.82186,-0.21818 1.11772,-0.61096 0.29586,-0.39272 0.44928,-0.88729 0.46024,-1.48373 -0.0109,-0.59637 -0.16438,-1.09094 -0.46024,-1.48372 -0.29586,-0.39273 -0.66843,-0.59638 -1.11772,-0.61096 -0.44928,0.0146 -0.82185,0.21823 -1.11771,0.61096 -0.29587,0.39278 -0.44928,0.88735 -0.46024,1.48372 z" />
    <path
       inkscape:connector-curvature="0"
       style="font-size:34.3842926px;font-style:normal;font-variant:normal;font-weight:normal;font-stretch:normal;line-height:125%;letter-spacing:0px;word-spacing:0px;fill:#000000;fill-opacity:1;stroke:#000000;stroke-width:0.1;stroke-miterlimit:4;stroke-dasharray:none;display:inline;font-family:Times Ten LT Std Roman;-inkscape-font-specification:Times Ten LT Std Roman"
       id="path4119"
       d="m 493.63566,38.42349 c 0.0384,-1.28088 0.38535,-2.43328 1.04101,-3.45719 0.65566,-1.02389 1.4775,-1.56534 2.46556,-1.62436 1.17981,0.0348 2.00532,0.52773 2.47652,1.47889 0.47118,0.95118 0.69765,2.15207 0.67939,3.60266 z m 9.46774,1.1637 c -0.034,-2.14153 -0.52112,-3.90002 -1.46107,-5.27548 -0.93997,-1.37543 -2.21597,-2.08658 -3.828,-2.13347 -2.13561,0.10266 -3.74522,1.15807 -4.82885,3.16626 -1.08362,2.00822 -1.62665,4.35342 -1.62909,7.0356 0.014,2.5731 0.56312,4.671 1.64736,6.29373 1.08423,1.62273 2.61957,2.45996 4.60603,2.51168 1.46653,-0.0735 2.72671,-0.77016 3.78052,-2.08983 1.05378,-1.31968 1.86833,-2.82119 2.44364,-4.50453 l -0.49676,-0.42669 c -0.48644,1.05219 -1.13539,1.98316 -1.94688,2.7929 -0.81151,0.80975 -1.84766,1.23644 -3.10844,1.28008 -1.58952,-0.0679 -2.77177,-0.88248 -3.54675,-2.44379 -0.77498,-1.5613 -1.16094,-3.46203 -1.15789,-5.70219 l 0,-0.50427 z" />
    <path
       inkscape:connector-curvature="0"
       style="font-size:34.3842926px;font-style:normal;font-variant:normal;font-weight:normal;font-stretch:normal;line-height:125%;letter-spacing:0px;word-spacing:0px;fill:#000000;fill-opacity:1;stroke:#000000;stroke-width:0.1;stroke-miterlimit:4;stroke-dasharray:none;display:inline;font-family:Times Ten LT Std Roman;-inkscape-font-specification:Times Ten LT Std Roman"
       id="path4121"
       d="m 505.47053,50.79761 7.3638,0 0,-0.77581 c -1.04954,0.046 -1.73381,-0.15274 -2.05281,-0.5964 -0.319,-0.44367 -0.46267,-1.40857 -0.43101,-2.89474 l 0,-9.03814 c 0.0256,-0.19637 0.25933,-0.66669 0.70131,-1.41101 0.44197,-0.74426 0.93874,-1.16612 1.49029,-1.26553 0.17168,0.006 0.31779,0.0623 0.43832,0.16971 0.12053,0.10751 0.23742,0.23195 0.35066,0.37335 0.11445,0.14145 0.25081,0.2659 0.4091,0.37337 0.15828,0.10751 0.35308,0.16406 0.58443,0.1697 0.37805,-0.0101 0.70314,-0.17454 0.97527,-0.49458 0.27211,-0.32 0.41457,-0.73699 0.42736,-1.25098 -0.0171,-0.64245 -0.19482,-1.13218 -0.53329,-1.46918 -0.33849,-0.33698 -0.73541,-0.50669 -1.19077,-0.50913 -0.72568,0.0663 -1.40751,0.48652 -2.0455,1.26068 -0.63802,0.77421 -1.17374,1.50476 -1.60718,2.19166 l 0,-3.45234 -0.14611,0 c -0.7488,0.34913 -1.52317,0.67885 -2.3231,0.98916 -0.79994,0.31033 -1.60353,0.60126 -2.41077,0.87277 l 0,0.77581 c 0.99109,-0.0437 1.63153,0.13094 1.92131,0.52367 0.28978,0.39277 0.41884,1.26555 0.38718,2.61835 l 0,8.49509 c 0.0426,1.39483 -0.0645,2.32903 -0.32144,2.8026 -0.2569,0.47356 -0.91925,0.72893 -1.98705,0.76611 z" />
    <path
       inkscape:connector-curvature="0"
       style="font-size:34.3842926px;font-style:normal;font-variant:normal;font-weight:normal;font-stretch:normal;line-height:125%;letter-spacing:0px;word-spacing:0px;fill:#000000;fill-opacity:1;stroke:#000000;stroke-width:0.1;stroke-miterlimit:4;stroke-dasharray:none;display:inline;font-family:Times Ten LT Std Roman;-inkscape-font-specification:Times Ten LT Std Roman"
       id="path4125"
       d="m 533.49458,32.17824 -0.52599,0 c -0.0298,0.22952 -0.0943,0.39115 -0.1936,0.48488 -0.0992,0.0937 -0.22951,0.13901 -0.39083,0.13576 -0.20639,-0.003 -0.42189,-0.0355 -0.64653,-0.097 -0.22465,-0.0614 -0.44746,-0.13251 -0.66843,-0.21334 -0.23318,-0.0808 -0.46816,-0.15191 -0.70498,-0.21335 -0.23681,-0.0614 -0.47911,-0.0937 -0.72687,-0.097 -1.13904,10e-4 -2.13377,0.4057 -2.98424,1.21219 -0.85047,0.80654 -1.29731,2.00581 -1.34053,3.59782 0.0895,1.92611 0.71574,3.37523 1.87882,4.34738 1.16309,0.97216 2.32617,1.85812 3.48926,2.65785 1.16307,0.79977 1.78935,1.90409 1.87883,3.31299 -0.0262,0.91077 -0.28796,1.59122 -0.78533,2.04134 -0.49738,0.45014 -1.07329,0.6748 -1.72772,0.67399 -1.09154,-0.0517 -1.99862,-0.59802 -2.72123,-1.6389 -0.72263,-1.04087 -1.11103,-2.26599 -1.16521,-3.67538 l -0.70131,0 0.20454,6.09009 0.58443,0 c 0.0171,-0.14143 0.0414,-0.26589 0.0731,-0.37337 0.0316,-0.10751 0.14367,-0.16404 0.33604,-0.1697 0.27395,0.0388 0.75611,0.19395 1.44646,0.46548 0.69036,0.27154 1.43551,0.42669 2.23545,0.46549 1.13658,-0.005 2.12158,-0.48003 2.95502,-1.42555 0.8334,-0.94552 1.2705,-2.33227 1.3113,-4.16026 -0.0894,-1.83081 -0.71575,-3.22917 -1.87882,-4.19511 -1.1631,-0.96591 -2.32618,-1.84133 -3.48927,-2.62624 -1.16308,-0.78489 -1.78935,-1.82122 -1.87882,-3.10898 0.0195,-0.75883 0.24351,-1.33582 0.67209,-1.73101 0.42858,-0.39516 0.94482,-0.59397 1.54874,-0.59642 1.03066,0.0332 1.80381,0.46147 2.31945,1.28494 0.51562,0.8235 0.90159,1.84336 1.15789,3.05959 l 0.526,0 z" />
    <text
       sodipodi:linespacing="125%"
       style="font-size:30.6021328px;font-style:normal;font-variant:normal;font-weight:normal;font-stretch:normal;line-height:125%;letter-spacing:0px;word-spacing:0px;fill:#000000;fill-opacity:1;stroke:#000000;stroke-width:0.1;stroke-miterlimit:4;stroke-dasharray:none;display:inline;font-family:Berkeley-Bold;-inkscape-font-specification:Berkeley-Bold"
       xml:space="preserve"
       id="text4141"
       transform="scale(0.92033633,1.0865593)"
       y="24.913584"
       x="562.0611"><tspan
         style="stroke-width:0.1"
         id="tspan4143"
         y="24.913584"
         x="562.0611">,</tspan></text>
    <g
       id="text4328-3"
       style="font-size:8.84082985px;font-style:normal;font-variant:normal;font-weight:bold;font-stretch:normal;line-height:125%;letter-spacing:0px;word-spacing:0px;fill:#000000;fill-opacity:1;stroke:#000000;stroke-width:0.2;stroke-miterlimit:4;display:inline;font-family:Times Ten LT Std Roman;-inkscape-font-specification:'Times Ten LT Std Roman, Bold'">
      <path
         id="path3083"
         style="font-weight:normal;stroke:#000000;-inkscape-font-specification:'Times Ten LT Std Roman,'"
         d="m 862.38775,71.750526 2.89975,0 0,-0.176814 c -0.40023,1.84e-4 -0.66508,-0.06207 -0.79456,-0.18676 -0.12948,-0.124691 -0.18879,-0.39249 -0.17792,-0.8034 l 0,-4.172818 c -0.0105,-0.161154 0.0105,-0.274241 0.063,-0.339263 0.0525,-0.06501 0.19947,-0.09632 0.44094,-0.09393 0.582,-0.01952 0.98278,0.04384 1.20233,0.190075 0.21954,0.146246 0.37278,0.492507 0.45972,1.038784 l 0.17681,0 -0.053,-1.555966 -5.53429,0 -0.053,1.555966 0.17681,0 c 0.0869,-0.546277 0.24017,-0.892538 0.45972,-1.038784 0.21954,-0.146234 0.62032,-0.209593 1.20234,-0.190075 0.23759,-0.0024 0.38346,0.02892 0.43761,0.09393 0.0542,0.06502 0.0763,0.178109 0.0663,0.339262 l 0,4.172818 c 0.0109,0.41091 -0.0485,0.67871 -0.17792,0.8034 -0.12948,0.124691 -0.39434,0.186945 -0.79456,0.18676 z" />
      <path
         id="path3085"
         style="font-weight:normal;stroke:#000000;-inkscape-font-specification:'Times Ten LT Std Roman,'"
         d="m 866.99356,65.827247 c 0.38733,-0.0024 0.62935,0.0886 0.72604,0.272957 0.0967,0.184371 0.13759,0.476483 0.12267,0.876336 l 0,3.359472 c 0.0177,0.440563 -0.0177,0.755145 -0.10609,0.943746 -0.0884,0.188603 -0.33595,0.286587 -0.74262,0.293954 l 0,0.176814 2.09525,0 0,-0.176814 c -0.40667,-0.0074 -0.65421,-0.105352 -0.74262,-0.293954 -0.0884,-0.188601 -0.12377,-0.503183 -0.10609,-0.943746 l 0,-3.536287 0.0177,0 2.35163,4.950801 0.1503,0 2.33395,-5.154137 0.0177,0 0,3.916437 c 0.0156,0.334291 -0.0245,0.593986 -0.12046,0.779088 -0.096,0.185103 -0.34166,0.279035 -0.73709,0.281798 l 0,0.176814 2.67873,0 0,-0.176814 c -0.41312,-0.0083 -0.67208,-0.09338 -0.77687,-0.255276 -0.10481,-0.161895 -0.14938,-0.430431 -0.13372,-0.80561 l 0,-3.810348 c -0.006,-0.338152 0.0588,-0.570221 0.19339,-0.696207 0.13463,-0.125974 0.3737,-0.185649 0.7172,-0.179024 l 0,-0.176815 -1.79466,0 -2.18366,4.650217 -2.1925,-4.650217 -1.76814,0 z" />
    </g>
    <path
       inkscape:connector-curvature="0"
       style="fill:#a0781f;fill-opacity:1;stroke:#000000;stroke-width:2.70000005;stroke-miterlimit:4;stroke-dasharray:none;display:inline"
       id="path3226"
       d="m 186.87208,94.88827 c -1.37073,-7.48058 -2.46271,-14.18378 -3.47619,-17.57826 -1.41177,-4.72849 -6.69378,-4.15077 -6.69378,-4.15077 l 0,-7.99264 39.86946,0 0,7.99264 c -7.99968,0.51215 -10.10302,3.27596 -10.7966,5.643 -1.2847,4.38439 5.90914,38.34791 6.7749,43.85989 9.73443,60.04149 9.78338,69.58001 9.78338,69.58001 0,0 17.823,-109.54816 15.832,-115.25955 -1.88898,-3.99073 -8.4617,-3.82335 -8.4617,-3.82335 l 0,-7.99264 25.97987,0 0,7.99264 c -3.1942,0 -5.30841,1.74354 -6.23956,3.541 -3.19079,6.15943 -30.75098,179.48206 -30.75098,179.48206 l -5.61714,0 c 0,0 -18.9497,-118.53936 -26.20366,-161.29403 z" />
    <path
       inkscape:connector-curvature="0"
       style="fill:#a0781f;fill-opacity:1;stroke:#000000;stroke-width:2.70000005;stroke-miterlimit:4;stroke-dasharray:none;display:inline"
       id="path4377"
       d="m 729.28835,64.13981 c -6.73206,0.9076 -12.18336,4.65077 -16.53125,9.53125 -4.34789,4.88048 -7.59801,10.91397 -9.96875,16.5625 -10.26147,24.44904 -12.2755,51.57998 -11.53125,77.78125 0.33347,11.73964 1.60935,23.97564 3.8125,35.90625 2.55635,13.84332 6.88916,27.25117 14.6875,38.875 2.45959,3.66614 5.86586,7.31358 9.8125,9.9375 3.93768,2.61796 8.45971,4.2139 13.0625,3.625 0.0103,-8.7e-4 0.0209,8.9e-4 0.0312,0 9.50503,-0.8176 16.95504,-9.91695 22.4375,-20.5 5.48841,-10.59453 9.02338,-22.7855 10.46875,-30.21875 6.36432,-32.73028 6.16796,-67.28017 -1.90625,-99.71875 -3.94943,-15.86706 -10.41311,-34.28282 -27.34375,-40.96875 -2.08479,-0.82328 -4.8155,-1.11122 -7.03125,-0.8125 z m 1.3125,8.125 c 2.20282,-0.0129 4.12097,0.99429 5.90625,2.9375 1.78528,1.94321 3.40216,4.82155 4.78125,8.46875 2.75819,7.29441 4.65569,17.56787 5.90625,29.1875 3.20452,29.775 2.13756,68.4197 0.8125,89.15625 -0.98112,15.35408 -3.61687,26.80656 -6.9375,34.25 -1.66031,3.72172 -3.49414,6.43241 -5.34375,8.125 -1.84961,1.69259 -3.6732,2.36605 -5.4375,2.15625 -3.0398,-0.36148 -6.54928,-3.52726 -9.65625,-9.90625 -3.10697,-6.37899 -5.78764,-15.89507 -7.3125,-28.59375 -3.43954,-28.64373 -3.63195,-57.81943 -0.78125,-86.5 0.63137,-6.35217 1.95123,-18.72278 4.78125,-29.5 1.41501,-5.38861 3.21333,-10.37094 5.4375,-13.96875 2.22417,-3.59781 4.80033,-5.75593 7.84375,-5.8125 z" />
    <path
       inkscape:connector-curvature="0"
       style="fill:#a0781f;fill-opacity:1;stroke:#000000;stroke-width:2.70000005;stroke-miterlimit:4;stroke-dasharray:none;display:inline"
       id="path4386"
       d="m 91.0696,63.26481 c -5.75071,-0.0445 -10.22469,2.09969 -16.0625,7.9375 -11.87122,11.87122 -19.42,33.30842 -22.53125,64.9375 -1.86938,19.00423 -1.22766,39.7555 1.34375,58.03125 2.57141,18.27575 7.11786,34.10761 12.8125,43.125 6.09026,9.50514 14.03575,18.22701 24.66997,18.08994 18.44865,0.58703 26.03003,-18.84982 30.29878,-33.87119 l 1.56688,-5.51372 -3.72313,-7.39749 c -3.20423,8.72012 -6.17798,17.03308 -11.28125,24.16121 -4.99221,6.97301 -10.77269,10.50906 -16.21875,10.1875 -5.44606,-0.32156 -10.11276,-4.59624 -12.90625,-12.0625 -4.58037,-12.24215 -6.55529,-26.91768 -7.6875,-56.65625 -0.67024,-17.60482 0.69847,-49.70339 2.71875,-63.75 2.34027,-16.27152 5.45836,-27.39721 9.625,-33.46875 2.08332,-3.03577 5.20074,-5.42718 8.00128,-5.25813 15.80182,0.95388 22.05078,35.45123 23.68622,43.16438 l 2.18473,13.20387 4.65881,0 0,-65.03401 -3.65171,0 c 0,0 -1.74004,10.88661 -4.54001,11.60936 -1.876,0.48425 -5.34164,-3.37835 -7.83937,-5.37287 -6.32195,-4.87735 -9.23028,-6.01681 -15.125,-6.0625 z" />
    <path
       inkscape:connector-curvature="0"
       style="fill:#a0781f;fill-opacity:1;stroke:#000000;stroke-width:2.70000005;stroke-miterlimit:4;stroke-dasharray:none;display:inline"
       id="path3218"
       d="m 793.66832,112.67604 c 0,0 0,111.15541 0,118.45038 0,7.90048 1.2769,10.36976 8.4794,12.02849 l 0,7.99383 -24.9326,0 -0.014,-3.20673 0.014,-4.7871 c 0,0 3.9788,-0.78537 4.7741,-1.45295 4.9316,-4.13968 4.5829,-3.72181 4.5829,-77.12943 l 0,-70.0075 c -1.9808,-6.77544 -3.0075,-11.39985 -5.5383,-18.40239 -0.7053,-1.95127 -3.8187,-3.0034 -3.8187,-3.0034 l 0,-7.99264 25.4052,0.0205 37.1297,111.74181 c -0.014,-30.37737 -0.041,-56.49949 0,-86.11859 0,-11.63255 -2.2109,-17.65111 -8.9724,-17.65113 l 0,-7.99264 24.9048,0 0,7.99269 c 0,0 -2.0457,0.2465 -3.2248,0.65753 -3.6337,1.26672 -4.5836,4.06081 -5.7915,13.85216 -0.5089,4.125 0,86.9023 0,86.9023 l 0,79.45415 -5.5188,0.0103 z" />
    <path
       inkscape:connector-curvature="0"
       style="fill:#a0781f;fill-opacity:1;stroke:#000000;stroke-width:2.70000005;stroke-miterlimit:4;stroke-dasharray:none;display:inline"
       id="path3214"
       d="m 304.22585,65.17106 0,8 c 9.88669,0 8.96875,13.5528 8.96875,15.28125 l 0,65.0625 0,9.28125 0,65.0625 c 0,1.72845 0.91794,15.3125 -8.96875,15.3125 l 0,7.96875 66.86532,0.12329 3.93308,-62.63737 -3.52218,2e-5 c -3.75779,21.61238 -10.45409,52.5881 -26.44774,52.8599 -9.88669,0 -10.82853,-11.89862 -10.82853,-13.62707 l 0,-65.0625 0,-9.28125 0,-65.0625 c 0,-1.72845 -0.91794,-15.28125 8.96875,-15.28125 l 0,-8 -19.46875,0 -0.0312,0 z" />
    <path
       inkscape:connector-curvature="0"
       style="fill:#a0781f;fill-opacity:1;stroke:#000000;stroke-width:2.70000005;stroke-miterlimit:4;stroke-dasharray:none;display:inline"
       id="path3212"
       d="m 427.86459,251.14852 0.0204,-7.99361 c 0,0 41.68414,-165.79179 41.44763,-166.08012 -29.24084,-1.48044 -28.73068,15.4921 -35.0136,47.85506 l -4.09692,0.0611 1.98977,-59.8241 59.81383,0 0,7.99239 c 0,0 -34.62812,141.70338 -41.32246,166.36421 13.59678,0.84195 20.55183,-0.24164 26.02826,-4.88846 9.88287,-8.38575 11.72801,-26.1936 15.29833,-49.39564 l 4.2748,-0.001 -2.78572,65.91071 -65.65455,0 z" />
    <path
       inkscape:connector-curvature="0"
       style="fill:#a0781f;fill-opacity:1;stroke:#000000;stroke-width:2.70000005;stroke-miterlimit:4;stroke-dasharray:none;display:inline"
       id="path3214-4"
       d="m 260.22279,65.1666 0,8 c 9.88669,0 8.96875,13.5528 8.96875,15.28125 l 0,65.0625 0,9.28125 0,65.0625 c 0,1.72845 0.91794,15.3125 -8.96875,15.3125 l 0,7.96875 19.46875,0 0.0312,0 19.46875,0 0,-7.96875 c -9.88669,0 -8.96875,-13.58405 -8.96875,-15.3125 l 0,-65.0625 0,-9.28125 0,-65.0625 c 0,-1.72845 -0.91794,-15.28125 8.96875,-15.28125 l 0,-8 -19.46875,0 -0.0312,0 z" />
    <path
       inkscape:connector-curvature="0"
       style="fill:#a0781f;fill-opacity:1;stroke:#000000;stroke-width:2.70000005;stroke-miterlimit:4;stroke-dasharray:none;display:inline"
       id="path3214-4-8"
       d="m 132.19227,65.1666 0,8 c 9.88669,0 8.96875,13.5528 8.96875,15.28125 l 0,65.0625 0,9.28125 0,65.0625 c 0,1.72845 0.91794,15.3125 -8.96875,15.3125 l 0,7.96875 19.46875,0 0.0312,0 19.46875,0 0,-7.96875 c -9.88669,0 -8.96875,-13.58405 -8.96875,-15.3125 l 0,-65.0625 0,-9.28125 0,-65.0625 c 0,-1.72845 -0.91794,-15.28125 8.96875,-15.28125 l 0,-8 -19.46875,0 -0.0312,0 z" />
    <path
       inkscape:connector-curvature="0"
       style="fill:#a0781f;fill-opacity:1;stroke:#000000;stroke-width:2.70000005;stroke-miterlimit:4;stroke-dasharray:none;display:inline"
       id="path3214-4-82"
       d="m 381.6933,65.15924 0,8 c 9.88669,0 8.96875,13.5528 8.96875,15.28125 l 0,65.0625 0,9.28125 0,65.0625 c 0,1.72845 0.91794,15.3125 -8.96875,15.3125 l 0,7.96875 19.46875,0 0.0312,0 19.46875,0 0,-7.96875 c -9.88669,0 -8.96875,-13.58405 -8.96875,-15.3125 l 0,-65.0625 0,-9.28125 0,-65.0625 c 0,-1.72845 -0.91794,-15.28125 8.96875,-15.28125 l 0,-8 -19.46875,0 -0.0312,0 z" />
    <path
       inkscape:connector-curvature="0"
       style="fill:#a0781f;fill-opacity:1;stroke:#000000;stroke-width:2.70000005;stroke-miterlimit:4;stroke-dasharray:none;display:inline"
       id="path3214-4-82-4"
       d="m 567.85212,65.17106 0,57.5625 4,0 c 3.0531,-24.44698 5.1863,-46.77826 20.5,-47.09375 l 0,77.875 0,9.28125 0,65.0625 c 0,1.72845 0.9179,15.3125 -8.9687,15.3125 l 0,7.96875 38.9687,0 0,-7.96875 c -9.8867,0 -8.9687,-13.58405 -8.9687,-15.3125 l 0,-65.0625 0,-9.28125 0,-77.875 c 15.3136,0.31549 17.4468,22.64677 20.5,47.09375 l 4,0 0,-57.5625 -35,0 -0.031,0 z" />
    <path
       inkscape:connector-curvature="0"
       style="fill:#a0781f;fill-opacity:1;stroke:#000000;stroke-width:2.70000005;stroke-miterlimit:4;stroke-dasharray:none;display:inline"
       id="path3214-4-82-4-5"
       d="m 643.65922,65.1666 0,8 c 9.8866,0 8.9687,13.5528 8.9687,15.28125 l 0,65.0625 0,9.28125 0,65.0625 c 0,1.72845 0.9179,15.3125 -8.9687,15.3125 l 0,7.96875 19.4687,0 0.031,0 19.4688,0 0,-7.96875 c -9.8867,0 -8.9688,-13.58405 -8.9688,-15.3125 l 0,-65.0625 0,-9.28125 0,-65.0625 c 0,-1.72845 -0.9179,-15.28125 8.9688,-15.28125 l 0,-8 -19.4688,0 -0.031,0 z" />
    <path
       inkscape:connector-curvature="0"
       style="fill:#a0781f;fill-opacity:1;stroke:#000000;stroke-width:2.70000005;stroke-miterlimit:4;stroke-dasharray:none;display:inline"
       id="path3226-7"
       d="m 538.22457,65.17106 c 0,0 -27.46546,168.27807 -30.65625,174.4375 -0.93115,1.79746 -3.0558,3.5625 -6.25,3.5625 l 0,7.96875 25.96875,0 0,-7.96875 c 0,0 -6.54852,0.14698 -8.4375,-3.84375 -0.77754,-2.23045 1.47548,-19.82223 4.5,-40.34375 l 22.09375,0 c 2.1617,11.2699 6.8432,34.90709 5.7812,38.53125 -0.6935,2.36704 -2.7815,5.1441 -10.7812,5.65625 l 0,7.96875 39.8437,0 0,-7.96875 c 0,0 -5.2757,0.57224 -6.6875,-4.15625 -1.0134,-3.39448 -2.098,-10.11317 -3.4687,-17.59375 -7.254,-42.75467 -26.2813,-156.25 -26.2813,-156.25 z m -3.23374,60.72304 c 0,0 -0.19706,7.74562 8.29619,60.58946 l -18.06245,0 c 4.42077,-28.91436 9.76626,-60.58946 9.76626,-60.58946 z" />
  </g>
</svg>
