<?xml version="1.0" encoding="UTF-8" standalone="no"?>
<!-- Created with Inkscape (http://www.inkscape.org/) -->

<svg
   xmlns:svg="http://www.w3.org/2000/svg"
   xmlns="http://www.w3.org/2000/svg"
   xmlns:xlink="http://www.w3.org/1999/xlink"
   version="1.1"
   width="1920"
   height="250"
   id="svg2">
  <defs
     id="defs6">
    <linearGradient
       id="linearGradient3684">
      <stop
         id="stop3686"
         style="stop-color:#000000;stop-opacity:1"
         offset="0" />
      <stop
         id="stop3688"
         style="stop-color:#ea0000;stop-opacity:1"
         offset="1" />
    </linearGradient>
    <linearGradient
       x1="909.45905"
       y1="562.79858"
       x2="908.39746"
       y2="499.54266"
       id="linearGradient3690"
       xlink:href="#linearGradient3684"
       gradientUnits="userSpaceOnUse" />
    <linearGradient
       x1="909.45905"
       y1="562.79858"
       x2="908.39746"
       y2="499.54266"
       id="linearGradient3756"
       xlink:href="#linearGradient3684"
       gradientUnits="userSpaceOnUse" />
    <linearGradient
       x1="909.45905"
       y1="562.79858"
       x2="908.39746"
       y2="499.54266"
       id="linearGradient3758"
       xlink:href="#linearGradient3684"
       gradientUnits="userSpaceOnUse" />
    <linearGradient
       x1="909.45905"
       y1="562.79858"
       x2="908.39746"
       y2="499.54266"
       id="linearGradient3760"
       xlink:href="#linearGradient3684"
       gradientUnits="userSpaceOnUse" />
    <linearGradient
       x1="909.45905"
       y1="562.79858"
       x2="908.39746"
       y2="499.54266"
       id="linearGradient3762"
       xlink:href="#linearGradient3684"
       gradientUnits="userSpaceOnUse" />
    <linearGradient
       x1="909.45905"
       y1="562.79858"
       x2="908.39746"
       y2="499.54266"
       id="linearGradient3764"
       xlink:href="#linearGradient3684"
       gradientUnits="userSpaceOnUse" />
    <linearGradient
       x1="909.45905"
       y1="562.79858"
       x2="908.39746"
       y2="499.54266"
       id="linearGradient3766"
       xlink:href="#linearGradient3684"
       gradientUnits="userSpaceOnUse" />
    <linearGradient
       x1="909.45905"
       y1="562.79858"
       x2="908.39746"
       y2="499.54266"
       id="linearGradient3768"
       xlink:href="#linearGradient3684"
       gradientUnits="userSpaceOnUse" />
    <linearGradient
       x1="909.45905"
       y1="562.79858"
       x2="908.39746"
       y2="499.54266"
       id="linearGradient3770"
       xlink:href="#linearGradient3684"
       gradientUnits="userSpaceOnUse" />
    <linearGradient
       x1="909.45905"
       y1="562.79858"
       x2="908.39746"
       y2="499.54266"
       id="linearGradient3772"
       xlink:href="#linearGradient3684"
       gradientUnits="userSpaceOnUse" />
    <linearGradient
       x1="909.45905"
       y1="562.79858"
       x2="908.39746"
       y2="499.54266"
       id="linearGradient3774"
       xlink:href="#linearGradient3684"
       gradientUnits="userSpaceOnUse" />
    <linearGradient
       x1="909.45905"
       y1="562.79858"
       x2="908.39746"
       y2="499.54266"
       id="linearGradient3776"
       xlink:href="#linearGradient3684"
       gradientUnits="userSpaceOnUse" />
    <linearGradient
       x1="909.45905"
       y1="562.79858"
       x2="908.39746"
       y2="499.54266"
       id="linearGradient3778"
       xlink:href="#linearGradient3684"
       gradientUnits="userSpaceOnUse" />
  </defs>
  <g
     transform="matrix(1.4262067,0,0,1.4262067,-425.64752,-600.13974)"
     id="g3714">
    <g
       id="text2818">
      <path
         d="m 415.79977,441.61311 -26.54234,0 0,10.4679 23.63262,0 c 3.33549,2e-5 5.61832,0.61508 6.84849,1.84519 1.23008,1.23014 1.84514,3.56028 1.84519,6.99043 l 0,4.22264 c -5e-5,3.45382 -0.60328,5.79579 -1.80971,7.02592 -1.20651,1.23012 -3.50117,1.84519 -6.88397,1.84519 l -21.89389,0 c -3.40651,0 -5.72483,-0.62098 -6.95494,-1.86294 -1.23014,-1.24195 -1.8452,-3.578 -1.84519,-7.00817 l 0,-1.02905 5.81944,-1.3484 0,6.03235 27.92624,0 0,-11.28405 -23.56165,0 c -3.40652,2e-5 -5.71301,-0.62096 -6.91946,-1.86293 -1.20648,-1.24193 -1.80972,-3.57799 -1.80971,-7.00817 l 0,-3.26457 c -1e-5,-3.43012 0.60323,-5.76618 1.80971,-7.00817 1.20645,-1.24192 3.51294,-1.86289 6.91946,-1.86293 l 19.97772,0 c 3.3355,4e-5 5.63607,0.60919 6.90172,1.82745 1.26557,1.21833 1.89837,3.35331 1.89842,6.40493 l 0,0.78066 -5.35815,1.52583 z"
         id="path2823" />
      <path
         d="m 444.20829,474.01038 0,-37.50703 6.28074,0 0,37.50703 -6.28074,0 z"
         id="path2825" />
      <path
         d="m 493.70871,441.61311 -13.48408,0 0,27.18106 13.48408,0 c 6.07963,0 10.37324,-1.06453 12.88084,-3.1936 2.50752,-2.12905 3.76131,-5.65384 3.76135,-10.57436 -4e-5,-4.75488 -1.27748,-8.17913 -3.83231,-10.27273 -2.55492,-2.09355 -6.82488,-3.14034 -12.80988,-3.14037 z m 0.88711,-5.10976 c 3.45378,4e-5 6.32211,0.23069 8.60497,0.69195 2.28279,0.46133 4.21669,1.20059 5.8017,2.21777 2.4129,1.58501 4.31131,3.76138 5.69525,6.52913 1.38384,2.76781 2.07579,5.79581 2.07584,9.08401 -5e-5,3.50115 -0.68017,6.65334 -2.04035,9.4566 -1.36029,2.80328 -3.27053,5.00922 -5.73074,6.61784 -1.5377,0.99357 -3.45385,1.72691 -5.74847,2.20004 -2.2947,0.47312 -5.18076,0.70969 -8.6582,0.70969 l -20.65193,0 0,-37.50703 20.65193,0 z"
         id="path2827" />
      <path
         d="m 576.47475,443.2099 c 0.0946,0.73338 0.16558,1.50221 0.21291,2.30649 0.0473,0.80434 0.0709,1.86887 0.071,3.1936 l 0,25.30039 -5.32267,0 0,-37.50703 5.10976,0 18.23899,24.41328 16.99703,-24.41328 5.74848,0 0,37.50703 -5.74848,0 0,-25.30039 c -5e-5,-0.33116 0.0413,-1.16505 0.1242,-2.50165 0.0828,-1.33655 0.13597,-2.33603 0.15968,-2.99844 -0.47318,0.96994 -0.89308,1.78608 -1.2597,2.44843 -0.36672,0.6624 -0.69199,1.19467 -0.97582,1.5968 l -14.3357,20.86483 -1.5968,0 -14.90346,-20.29708 c -0.0237,-0.0236 -0.0828,-0.10643 -0.17742,-0.24839 -1.0882,-1.49032 -1.86886,-2.94518 -2.34197,-4.36459 l -3e-5,0 z"
         id="path2829" />
      <path
         d="m 640.72938,474.01038 0,-37.50703 36.12313,0 0,5.03879 -29.84239,0 0,10.43241 18.23899,0 0,4.96782 -18.23899,0 0,11.92277 30.12627,0 0,5.14524 -36.40701,0 z"
         id="path2831" />
      <path
         d="m 697.83113,474.01038 0,-37.50703 6.28074,0 0,37.50703 -6.28074,0 z"
         id="path2833" />
      <path
         d="m 728.9562,474.01038 0,-37.50703 36.12313,0 0,5.03879 -29.84239,0 0,10.43241 18.23899,0 0,4.96782 -18.23899,0 0,11.92277 30.12627,0 0,5.14524 -36.40701,0 z"
         id="path2835" />
      <path
         d="m 813.84227,441.36471 -21.50355,0 0,13.16472 21.50355,0 c 1.56128,2e-5 2.62581,-0.28385 3.1936,-0.85162 0.56771,-0.56773 0.85159,-1.5613 0.85163,-2.98069 l 0,-5.4646 c -4e-5,-1.41935 -0.28983,-2.41883 -0.86937,-2.99844 -0.57962,-0.57954 -1.63824,-0.86933 -3.17586,-0.86937 z m -27.78429,32.64567 0,-37.50703 30.23272,0 c 2.81505,4e-5 4.84358,0.5737 6.08558,1.72099 1.2419,1.14737 1.86288,2.99847 1.86293,5.55331 l 0,8.37433 c -5e-5,2.53124 -0.62103,4.37051 -1.86293,5.51782 -1.242,1.14735 -3.27053,1.72101 -6.08558,1.721 l -5.50009,0 17.13898,14.61958 -9.29692,0 -15.2583,-14.61958 -11.03565,0 0,14.61958 -6.28074,0 z"
         id="path2837" />
      <path
         d="m 849.66532,436.56663 c 1.04086,1e-5 1.66775,0.12421 1.88067,0.37259 0.21289,0.2484 0.31934,0.77475 0.31936,1.57906 l 0,5.53556 -5.10976,7.77109 -3.19359,0 4.29361,-7.98399 -2.48391,0 c -0.59142,0 -0.99357,-0.13603 -1.20647,-0.40807 -0.21291,-0.27205 -0.31937,-0.7984 -0.31936,-1.57906 l 0,-3.33553 c -10e-6,-0.82797 0.10645,-1.36023 0.31936,-1.5968 0.2129,-0.23656 0.83979,-0.35484 1.88068,-0.35485 l 3.61941,0 z"
         id="path2839" />
      <path
         d="m 907.11221,441.61311 -26.54235,0 0,10.4679 23.63262,0 c 3.3355,2e-5 5.61833,0.61508 6.8485,1.84519 1.23008,1.23014 1.84514,3.56028 1.84519,6.99043 l 0,4.22264 c -5e-5,3.45382 -0.60329,5.79579 -1.80971,7.02592 -1.20651,1.23012 -3.50117,1.84519 -6.88398,1.84519 l -21.89388,0 c -3.40652,0 -5.72483,-0.62098 -6.95495,-1.86294 -1.23013,-1.24195 -1.84519,-3.578 -1.84518,-7.00817 l 0,-1.02905 5.81944,-1.3484 0,6.03235 27.92623,0 0,-11.28405 -23.56165,0 c -3.40652,2e-5 -5.713,-0.62096 -6.91946,-1.86293 -1.20648,-1.24193 -1.80971,-3.57799 -1.8097,-7.00817 l 0,-3.26457 c -1e-5,-3.43012 0.60322,-5.76618 1.8097,-7.00817 1.20646,-1.24192 3.51294,-1.86289 6.91946,-1.86293 l 19.97773,0 c 3.33549,4e-5 5.63606,0.60919 6.90172,1.82745 1.26556,1.21833 1.89837,3.35331 1.89841,6.40493 l 0,0.78066 -5.35814,1.52583 0,-5.42911 z"
         id="path2841" />
      <path
         d="m 1003.6144,441.61311 -26.01005,0 0,27.18106 26.01005,0 0,-9.40337 6.2808,1.31292 0,4.43555 c -1e-4,3.45382 -0.6033,5.79579 -1.8097,7.02592 -1.2065,1.23012 -3.513,1.84519 -6.9195,1.84519 l -21.00677,0 c -3.40652,0 -5.72484,-0.62098 -6.95495,-1.86294 -1.23014,-1.24195 -1.8452,-3.578 -1.84519,-7.00817 l 0,-19.76482 c -1e-5,-3.43012 0.61505,-5.76618 1.84519,-7.00817 1.23011,-1.24192 3.54843,-1.86289 6.95495,-1.86293 l 21.00677,0 c 3.4065,4e-5 5.713,0.6151 6.9195,1.84519 1.2064,1.23016 1.8096,3.57213 1.8097,7.02591 l 0,3.54844 -6.2808,1.17099 0,-8.48077 z"
         id="path2843" />
      <path
         d="m 1030.3642,474.01038 0,-37.50703 6.2807,0 0,37.50703 -6.2807,0 z"
         id="path2845" />
      <path
         d="m 1074.94,474.01038 -20.4745,-37.50703 6.742,0 16.5713,31.26177 15.826,-31.26177 6.2098,0 -19.6229,37.50703 -5.2517,0 z"
         id="path2847" />
      <path
         d="m 1116.4555,474.01038 0,-37.50703 6.2807,0 0,37.50703 -6.2807,0 z"
         id="path2849" />
      <path
         d="m 1149.0106,474.01038 0,-37.50703 6.2807,0 0,32.29082 28.3876,0 0,5.21621 -34.6683,0 z"
         id="path2851" />
      <path
         d="m 1201.5662,474.01038 0,-37.50703 6.2807,0 0,37.50703 -6.2807,0 z"
         id="path2853" />
      <path
         d="m 1228.0449,474.01038 0,-2.55488 27.7842,-29.84239 -25.3713,0 0,-5.10976 35.378,0 0,2.12906 -28.2811,30.16176 28.2811,0 0,5.21621 -37.7909,0 z"
         id="path2855" />
      <path
         d="m 1293.3705,459.99403 20.1906,0 -10.113,-19.19707 -10.0776,19.19707 z m -13.5905,14.01635 20.4745,-37.50703 6.7065,0 20.8294,37.50703 -6.884,0 -4.7904,-9.22595 -25.3714,0 -4.7904,9.22595 -6.1742,0 z"
         id="path2857" />
      <path
         d="m 1354.4391,441.61311 0,32.39727 -6.2452,0 0,-32.39727 -17.139,0 0,-5.10976 40.5942,0 0,5.10976 -17.21,0 z"
         id="path2859" />
      <path
         d="m 1387.3362,474.01038 0,-37.50703 6.2808,0 0,37.50703 -6.2808,0 z"
         id="path2861"
         style="fill:#000000;font-family:BankGothic Lt BT;-inkscape-font-specification:BankGothic Lt BT" />
      <path
         d="m 1424.4958,468.79417 31.0488,0 0,-27.18106 -31.0488,0 0,27.18106 z m -6.2453,-23.41972 c 0,-3.40647 0.6091,-5.73661 1.8274,-6.99043 1.2183,-1.25374 3.5426,-1.88063 6.9727,-1.88067 l 25.9391,0 c 3.3828,4e-5 5.6834,0.62101 6.9018,1.86293 1.2182,1.24199 1.8274,3.57805 1.8274,7.00817 l 0,19.76482 c 0,3.45382 -0.6092,5.79579 -1.8274,7.02592 -1.2184,1.23012 -3.519,1.84519 -6.9018,1.84519 l -25.9391,0 c -3.4301,0 -5.7544,-0.62689 -6.9727,-1.88068 -1.2183,-1.25378 -1.8274,-3.58392 -1.8274,-6.99043 l 0,-19.76482 z"
         id="path2863" />
      <path
         d="m 1484.7782,473.80814 0,-37.50703 3.9388,0 28.0682,25.08748 c 0.6386,0.56776 1.3188,1.25379 2.0403,2.0581 0.7215,0.80432 1.4607,1.69143 2.2178,2.66133 -0.1893,-1.20646 -0.3312,-2.46616 -0.4258,-3.77909 -0.095,-1.31291 -0.142,-3.12853 -0.142,-5.44686 l 0,-20.58096 5.7485,0 0,37.50703 -3.5129,0 -28.8134,-26.08105 c -0.1419,-0.11825 -0.3549,-0.3075 -0.6387,-0.56775 -1.4194,-1.27741 -2.4721,-2.49571 -3.1581,-3.65489 0.1419,1.13553 0.2484,2.34791 0.3193,3.63715 0.071,1.28929 0.1065,2.80921 0.1065,4.55975 l 0,22.10679 -5.7485,0 z"
         id="path2865" />
    </g>
    <g
       transform="translate(-1.5277692e-8,-1.1440678)"
       id="text2869"
       style="font-size:160.2460022px;font-style:normal;font-weight:normal;fill:url(#linearGradient3778);fill-opacity:1;stroke:none;font-family:Bitstream Vera Sans">
      <path
         d="m 401.29436,561.12156 0,-6.88557 c -9e-5,-3.75573 -0.66517,-6.35086 -1.99525,-7.78539 -1.33025,-1.43446 -3.71673,-2.1517 -7.15943,-2.15174 l -47.72952,0 0,26.60334 47.72952,0 c 3.49487,10e-6 5.89438,-0.70419 7.19855,-2.11262 1.304,-1.4084 1.95604,-3.9644 1.95613,-7.66802 z m -0.7042,-34.97557 0,-8.29398 c -1e-4,-2.71243 -0.58693,-4.59031 -1.76052,-5.63365 -1.17376,-1.0432 -3.40375,-1.56483 -6.68996,-1.5649 l -47.72952,0 0,22.84757 47.72952,0 c 3.18188,5e-5 5.38579,-0.54766 6.61172,-1.64314 1.22574,-1.09538 1.83866,-2.99935 1.83876,-5.7119 z m -70.02939,56.10175 0,-82.70509 66.66485,0 c 6.20735,8e-5 10.68036,1.26505 13.41903,3.79489 2.73848,2.53 4.10777,6.61178 4.10787,12.24536 l 0,9.62415 c -1e-4,4.43394 -1.10857,7.74632 -3.32542,9.93713 -2.21704,2.19091 -5.69894,3.57324 -10.44572,4.14699 4.64245,0.57384 8.17652,2.23003 10.60221,4.96857 2.4255,2.73861 3.6383,6.48133 3.6384,11.22817 l 0,10.56309 c -1e-4,5.47717 -1.89102,9.54591 -5.67277,12.20624 -3.78194,2.66034 -9.53295,3.9905 -17.25305,3.9905 z"
         id="path2874"
         style="fill:url(#linearGradient3756)" />
      <path
         d="m 445.15934,582.24774 0,-82.70509 79.65353,0 0,11.11081 -65.80414,0 0,23.00406 40.21799,0 0,10.95432 -40.21799,0 0,26.29036 66.4301,0 0,11.34554 -80.27949,0 z"
         id="path2876"
         style="fill:url(#linearGradient3758)" />
      <path
         d="m 579.2688,582.24774 0,-36.071 -41.93939,-46.63409 17.13569,0 32.31523,36.85345 30.98507,-36.85345 16.8227,0 -41.54816,46.32111 0,36.38398 -13.77114,0 z"
         id="path2878"
         style="fill:url(#linearGradient3760)" />
      <path
         d="m 661.00174,570.74571 68.46448,0 0,-59.93576 -68.46448,0 0,59.93576 z M 647.2306,519.10393 c -2e-5,-7.51146 1.34319,-12.64955 4.02962,-15.41429 2.68639,-2.76458 7.81144,-4.14691 15.37517,-4.14699 l 57.19718,0 c 7.45926,8e-5 12.53215,1.36937 15.21868,4.10787 2.6863,2.73866 4.0295,7.88979 4.02962,15.45341 l 0,43.58253 c -1.2e-4,7.61587 -1.34332,12.78004 -4.02962,15.49254 -2.68653,2.71249 -7.75942,4.06874 -15.21868,4.06874 l -57.19718,0 c -7.56373,0 -12.68878,-1.38233 -15.37517,-4.14699 -2.68643,-2.76465 -4.02964,-7.90274 -4.02962,-15.41429 l 0,-43.58253 z"
         id="path2880"
         style="fill:url(#linearGradient3762)" />
      <path
         d="m 773.7728,582.24774 0,-82.70509 8.68521,0 61.89189,55.3193 c 1.40832,1.25195 2.90802,2.76469 4.49909,4.53822 1.59089,1.77357 3.221,3.7297 4.89032,5.86838 -0.4174,-2.66031 -0.73038,-5.43801 -0.93894,-8.3331 -0.20875,-2.89505 -0.31308,-6.89858 -0.31298,-12.01063 l 0,-45.38217 12.67571,0 0,82.70509 -7.74627,0 -63.53503,-57.51016 c -0.31302,-0.26076 -0.78249,-0.67807 -1.40841,-1.25192 -3.12985,-2.81676 -5.45111,-5.50318 -6.96382,-8.05925 0.31295,2.50391 0.54768,5.17728 0.70421,8.02013 0.15645,2.84296 0.2347,6.19445 0.23473,10.05449 l 0,48.74671 -12.67571,0 z"
         id="path2882"
         style="fill:url(#linearGradient3764)" />
      <path
         d="m 939.48931,510.80995 -29.73314,0 0,59.93576 29.73314,0 c 13.40593,10e-6 22.87353,-2.34734 28.40293,-7.04206 5.5293,-4.69469 8.2939,-12.46703 8.294,-23.31705 -10e-5,-10.48479 -2.8169,-18.03544 -8.4504,-22.65196 -5.6338,-4.61639 -15.0493,-6.92462 -28.24653,-6.92469 z m 1.95613,-11.2673 c 7.61578,8e-5 13.9406,0.50868 18.9744,1.52578 5.0337,1.01727 9.2981,2.64737 12.7931,4.89032 5.3206,3.49502 9.5067,8.29405 12.5584,14.3971 3.0514,6.10318 4.5772,12.78009 4.5773,20.03075 -1e-4,7.72022 -1.4998,14.67099 -4.4991,20.85233 -2.9995,6.18138 -7.2117,11.04561 -12.6366,14.59271 -3.3907,2.19087 -7.6159,3.80793 -12.6757,4.8512 -5.0599,1.04327 -11.42385,1.5649 -19.0918,1.5649 l -45.53866,0 0,-82.70509 45.53866,0 z"
         id="path2884"
         style="fill:url(#linearGradient3766)" />
      <path
         d="m 1077.4832,582.24774 0,-82.70509 79.6535,0 0,11.11081 -65.8041,0 0,23.00406 40.218,0 0,10.95432 -40.218,0 0,26.29036 66.4301,0 0,11.34554 -80.2795,0 z"
         id="path2886"
         style="fill:url(#linearGradient3768)" />
      <path
         d="m 1202.2045,551.34092 44.5215,0 -22.2999,-42.33061 -22.2216,42.33061 z m -29.9679,30.90682 45.1475,-82.70509 14.7883,0 45.9299,82.70509 -15.1796,0 -10.5631,-20.34373 -55.9452,0 -10.5631,20.34373 -13.6147,0 z"
         id="path2888"
         style="fill:url(#linearGradient3770)" />
      <path
         d="m 1353.9151,510.26223 -47.4165,0 0,29.02894 47.4165,0 c 3.4427,4e-5 5.7901,-0.62592 7.0421,-1.87788 1.2518,-1.25188 1.8778,-3.44274 1.8779,-6.57259 l 0,-12.04975 c -10e-5,-3.12974 -0.6391,-5.33364 -1.917,-6.61171 -1.2781,-1.27793 -3.6124,-1.91694 -7.003,-1.91701 z m -61.2659,71.98551 0,-82.70509 66.6648,0 c 6.2074,8e-5 10.6804,1.26505 13.4191,3.79489 2.7385,2.53 4.1077,6.61178 4.1078,12.24536 l 0,18.46585 c -10e-5,5.58153 -1.3693,9.63723 -4.1078,12.16711 -2.7387,2.52996 -7.2117,3.79493 -13.4191,3.79489 l -12.128,0 37.7924,32.23699 -20.5002,0 -33.6454,-32.23699 -24.3342,0 0,32.23699 -13.8494,0 z"
         id="path2890"
         style="fill:url(#linearGradient3772)" />
      <path
         d="m 1442.7473,510.80995 0,71.43779 -13.7712,0 0,-71.43779 -37.7924,0 0,-11.2673 89.5125,0 0,11.2673 -37.9489,0 z"
         id="path2892"
         style="fill:url(#linearGradient3774)" />
      <path
         d="m 1497.4631,582.24774 0,-82.70509 13.8494,0 0,33.80189 65.1781,0 0,-33.80189 13.7712,0 0,82.70509 -13.7712,0 0,-37.47941 -65.1781,0 0,37.47941 -13.8494,0 z"
         id="path2894"
         style="fill:url(#linearGradient3776)" />
    </g>
    <g
       id="text2896">
      <path
         d="m 1603.0678,510.23541 0,-10.35372 -3.8676,0 0,-1.3853 9.3047,0 0,1.3853 -3.8837,0 0,10.35372 z"
         id="path2908"
         style="fill:#000000" />
      <path
         d="m 1610.0584,510.23541 0,-11.73902 2.3381,0 2.7787,8.3118 c 0.2562,0.77407 0.443,1.35328 0.5605,1.73764 0.1334,-0.42707 0.3416,-1.05432 0.6246,-1.88177 l 2.8106,-8.16767 2.09,0 0,11.73902 -1.4974,0 0,-9.82522 -3.4112,9.82522 -1.4014,0 -3.3951,-9.99338 0,9.99338 z"
         id="path2910"
         style="fill:#000000" />
    </g>
    <g
       id="text2900">
      <path
         d="m 1541.2713,436.51447 c 0.9854,10e-6 1.9475,0.25286 2.8863,0.75853 0.9387,0.50569 1.67,1.2292 2.1939,2.17054 0.5238,0.94135 0.7857,1.9229 0.7857,2.94463 0,1.01137 -0.258,1.98383 -0.7741,2.91739 -0.516,0.93357 -1.2395,1.65838 -2.1705,2.17444 -0.931,0.51605 -1.9048,0.77408 -2.9213,0.77408 -1.0166,0 -1.9903,-0.25803 -2.9213,-0.77408 -0.931,-0.51606 -1.6558,-1.24087 -2.1744,-2.17444 -0.5187,-0.93356 -0.778,-1.90602 -0.778,-2.91739 0,-1.02173 0.2632,-2.00328 0.7896,-2.94463 0.5265,-0.94134 1.2591,-1.66485 2.1978,-2.17054 0.9388,-0.50567 1.9009,-0.75852 2.8863,-0.75853 z m 0,0.97247 c -0.8247,10e-6 -1.6273,0.21136 -2.4078,0.63405 -0.7806,0.4227 -1.3913,1.02693 -1.8322,1.81267 -0.4408,0.78576 -0.6612,1.60393 -0.6612,2.45451 0,0.8454 0.2165,1.65579 0.6496,2.43116 0.433,0.77538 1.0386,1.37961 1.8165,1.81268 0.778,0.43307 1.5897,0.6496 2.4351,0.6496 0.8454,0 1.6571,-0.21653 2.4351,-0.6496 0.7779,-0.43307 1.3821,-1.0373 1.8126,-1.81268 0.4305,-0.77537 0.6457,-1.58576 0.6457,-2.43116 0,-0.85058 -0.2191,-1.66875 -0.6573,-2.45451 -0.4383,-0.78574 -1.049,-1.38997 -1.8322,-1.81267 -0.7831,-0.42269 -1.5844,-0.63404 -2.4039,-0.63405 z m -2.5751,8.14537 0,-6.31714 2.1706,0 c 0.7416,10e-6 1.2784,0.0584 1.6104,0.17505 0.3319,0.1167 0.5964,0.32027 0.7935,0.61071 0.1971,0.29045 0.2956,0.59904 0.2956,0.92578 0,0.46161 -0.1647,0.86356 -0.494,1.20586 -0.3293,0.34231 -0.7663,0.53421 -1.3109,0.5757 0.223,0.0934 0.402,0.20487 0.5368,0.33453 0.2542,0.24896 0.5653,0.66647 0.9336,1.25254 l 0.7702,1.23697 -1.2448,0 -0.5601,-0.9958 c -0.4409,-0.78316 -0.7961,-1.27328 -1.0658,-1.47037 -0.1868,-0.14522 -0.459,-0.21783 -0.8169,-0.21783 l -0.599,0 0,2.684 z m 1.0192,-3.55533 1.2369,0 c 0.5913,0 0.9945,-0.0882 1.2098,-0.26451 0.2152,-0.17634 0.3228,-0.40973 0.3228,-0.70018 0,-0.18671 -0.052,-0.35397 -0.1556,-0.50179 -0.1037,-0.14781 -0.2476,-0.25802 -0.4317,-0.33064 -0.1842,-0.0726 -0.5252,-0.10891 -1.0231,-0.10892 l -1.1591,0 z"
         id="path2905" />
    </g>
  </g>
</svg>
