<?xml version="1.0" encoding="UTF-8" standalone="no"?>
<!-- Created with Inkscape (http://www.inkscape.org/) -->

<svg
   xmlns:svg="http://www.w3.org/2000/svg"
   xmlns="http://www.w3.org/2000/svg"
   version="1.1"
   width="198.57144"
   height="50"
   id="svg3280">
  <defs
     id="defs3282" />
  <g
     transform="translate(-326.42856,-691.64795)"
     id="layer1">
    <g
       id="g3643">
      <rect
         width="198.57144"
         height="50"
         x="326.42856"
         y="691.64795"
         id="rect3204"
         style="color:#000000;fill:#323232;fill-opacity:1;fill-rule:nonzero;stroke:none;stroke-width:0.84299999;marker:none;visibility:visible;display:inline;overflow:visible;enable-background:accumulate" />
      <path
         d="m 444.13301,703.8229 9.9,0 c 0,0 6.1875,0.8625 7.1625,8.625 -0.975,7.95 -4.8,8.1375 -4.8,8.1375 l 6.3375,9.3 -7.9875,0 -4.875,-8.7 0,-5.4 2.625,0 c 0,0 3.1125,-0.75 3.0375,-3.3375 0.075,-2.55 -3.0375,-3.4125 -3.0375,-3.4125 l -2.625,0 0,20.85 -5.7375,0 0,-26.0625"
         id="path2890"
         style="fill:#ffffff;fill-opacity:1;fill-rule:nonzero;stroke:none" />
      <path
         d="m 433.59551,720.9979 0,-5.2125 2.5875,0 c 0,0 3.15,-0.75 3.075,-3.3375 0.075,-2.55 -3.075,-3.4125 -3.075,-3.4125 l -2.5875,0 0,20.85 -5.7375,0 0,-26.0625 9.825,0 c 0,0 6.1875,0.8625 7.2375,8.625 -1.05,7.95 -7.2375,8.55 -7.2375,8.55 l -4.0875,0"
         id="path2892"
         style="fill:#ffffff;fill-opacity:1;fill-rule:nonzero;stroke:none" />
      <path
         d="m 460.29551,716.9104 c 0,-13.0875 6.9,-13.0875 9.15,-13.0875 2.2875,0 9.4875,0 9.4875,13.0875 0,12.975 -7.575,12.975 -9.4875,12.975 l 0,-5.2125 c 0.7875,0 3.825,0 3.825,-7.7625 0,-7.875 -2.7,-7.875 -3.825,-7.875 -1.125,0 -3.375,0 -3.375,7.875 0,7.7625 2.5875,7.7625 3.375,7.7625 l 0,5.2125 c -1.9125,0 -9.15,0 -9.15,-12.975"
         id="path2894"
         style="fill:#ffffff;fill-opacity:1;fill-rule:nonzero;stroke:none" />
      <path
         d="m 486.77051,703.8229 c 2.025,0 7.2375,0.525 8.3625,9.15 l -5.475,0 c 0,-3.3375 -1.03125,-4.0875 -2.85,-4.2 -0.675,0 -2.8125,0.2625 -2.7375,2.475 -0.525,3.7875 11.325,1.875 11.325,9.75 0,9.4875 -6.7125,8.8875 -8.625,8.8875 -1.65,0 -8.4375,0.2625 -8.3625,-8.55 l 5.5875,0 c 0,3.2625 1.5,3.75 3.09375,3.84375 0,0 2.4375,-0.28125 2.56875,-2.38125 0,-4.6125 -11.1375,-2.0625 -11.325,-9.825 0,-9.225 6.1875,-9.15 8.4375,-9.15"
         id="path2896"
         style="fill:#ffffff;fill-opacity:1;fill-rule:nonzero;stroke:none" />
      <path
         d="m 494.60801,703.8229 14.3625,0 0,5.2125 -8.7,0 0,5.2125 8.7,0 0,5.2125 -8.7,0 0,5.2125 8.7,0 0,5.2125 -14.3625,0 0,-26.0625"
         id="path2898"
         style="fill:#ffffff;fill-opacity:1;fill-rule:nonzero;stroke:none" />
      <path
         d="m 355.40801,710.5729 3.0375,-6.75 5.6625,0 0,6.75 -8.7,0"
         id="path2900"
         style="fill:#ffffff;fill-opacity:1;fill-rule:nonzero;stroke:none" />
      <path
         d="m 343.82051,710.5729 3.225,-6.75 5.7375,0 0,6.75 -8.9625,0"
         id="path2902"
         style="fill:#ffffff;fill-opacity:1;fill-rule:nonzero;stroke:none" />
      <path
         d="m 352.78301,711.5104 0,4.6125 2.2125,-4.6125 9.1125,0 0,5.7375 -23.5125,0 2.8125,-5.7375 9.375,0"
         id="path2904"
         style="fill:#ffffff;fill-opacity:1;fill-rule:nonzero;stroke:none" />
      <path
         d="m 358.44551,722.2729 0,-3.9 -1.9125,3.9 -9.4875,0 0,-3.9 -2.325,3.9 -6.5625,0 2.025,-4.0875 23.925,0 0,4.0875 -5.6625,0"
         id="path2906"
         style="fill:#ffffff;fill-opacity:1;fill-rule:nonzero;stroke:none" />
      <path
         d="m 341.90801,727.1479 -1.65,2.7375 -5.6625,0 1.2375,-2.7375 6.075,0"
         id="path2908"
         style="fill:#ffffff;fill-opacity:1;fill-rule:nonzero;stroke:none" />
      <path
         d="m 336.35801,726.2104 1.3875,-2.9625 6.45,0 -1.8375,2.9625 -6,0"
         id="path2910"
         style="fill:#ffffff;fill-opacity:1;fill-rule:nonzero;stroke:none" />
      <path
         d="m 354.09551,727.1479 -1.3125,2.7375 -5.7375,0 0,-2.7375 7.05,0"
         id="path2912"
         style="fill:#ffffff;fill-opacity:1;fill-rule:nonzero;stroke:none" />
      <path
         d="m 347.04551,726.2104 0,-2.9625 9.075,0 -1.5,2.9625 -7.575,0"
         id="path2914"
         style="fill:#ffffff;fill-opacity:1;fill-rule:nonzero;stroke:none" />
      <path
         d="m 358.44551,727.1479 0,2.7375 5.6625,0 0,-2.7375 -5.6625,0 z"
         id="path2916"
         style="fill:#ffffff;fill-opacity:1;fill-rule:nonzero;stroke:none" />
      <path
         d="m 358.44551,723.2479 0,2.9625 5.6625,0 0,-2.9625 -5.6625,0 z"
         id="path2918"
         style="fill:#ffffff;fill-opacity:1;fill-rule:nonzero;stroke:none" />
      <path
         d="m 365.23301,703.8229 0,6.75 5.775,0 0,-6.75 -5.775,0 z"
         id="path2920"
         style="fill:#ffffff;fill-opacity:1;fill-rule:nonzero;stroke:none" />
      <path
         d="m 365.23301,711.5104 0,5.7375 5.775,0 0,-5.7375 -5.775,0 z"
         id="path2922"
         style="fill:#ffffff;fill-opacity:1;fill-rule:nonzero;stroke:none" />
      <path
         d="m 365.23301,718.1854 0,4.0875 5.775,0 0,-4.0875 -5.775,0 z"
         id="path2924"
         style="fill:#ffffff;fill-opacity:1;fill-rule:nonzero;stroke:none" />
      <path
         d="m 365.23301,723.2479 0,2.9625 5.775,0 0,-2.9625 -5.775,0 z"
         id="path2926"
         style="fill:#ffffff;fill-opacity:1;fill-rule:nonzero;stroke:none" />
      <path
         d="m 365.23301,727.1479 0,2.7375 5.775,0 0,-2.7375 -5.775,0 z"
         id="path2928"
         style="fill:#ffffff;fill-opacity:1;fill-rule:nonzero;stroke:none" />
      <path
         d="m 382.93301,710.5729 c -1.05,-1.5375 -1.7625,-1.35 -2.9625,-1.5375 -0.525,0 -1.7625,0.1875 -2.625,1.5375 l -6,0 c 1.4625,-6.75 6.7875,-6.75 8.625,-6.75 1.9125,0 7.8375,0.075 9.375,6.75 l -6.4125,0"
         id="path2930"
         style="fill:#ffffff;fill-opacity:1;fill-rule:nonzero;stroke:none" />
      <path
         d="m 389.53301,711.5104 c 0.1875,0.8625 0.2625,1.725 0.2625,2.7375 l -6.2625,0 c -0.075,-1.125 -0.1875,-2.0625 -0.3375,-2.7375 l 6.3375,0"
         id="path2932"
         style="fill:#ffffff;fill-opacity:1;fill-rule:nonzero;stroke:none" />
      <path
         d="m 377.00801,711.5104 c -0.45,1.125 -0.7125,3 -0.7125,5.7375 l -5.7375,0 0,-0.3375 c 0,-2.1375 0.2625,-3.9375 0.6,-5.4 l 5.85,0"
         id="path2934"
         style="fill:#ffffff;fill-opacity:1;fill-rule:nonzero;stroke:none" />
      <path
         d="m 376.29551,718.1854 c 0,1.6125 0.375,3.15 0.6375,4.0875 l -5.775,0 c -0.2625,-1.1625 -0.3375,-2.55 -0.4125,-4.0875 l 5.55,0"
         id="path2936"
         style="fill:#ffffff;fill-opacity:1;fill-rule:nonzero;stroke:none" />
      <path
         d="m 377.27051,723.2479 c 0.3375,1.425 2.175,1.425 2.7,1.425 1.3125,0.2625 2.4375,0 3.1125,-1.425 l 5.925,0 c -0.3375,1.1625 -0.7875,2.2125 -1.125,2.9625 l -14.9625,0 c -0.6375,-0.825 -0.975,-1.6875 -1.3875,-2.9625 l 5.7375,0"
         id="path2938"
         style="fill:#ffffff;fill-opacity:1;fill-rule:nonzero;stroke:none" />
      <path
         d="m 383.45801,722.2729 c 0.2625,-0.75 0.4125,-1.425 0.6,-2.8125 l 5.6625,0 c 0,0.9375 -0.1875,1.875 -0.45,2.8125 l -5.8125,0"
         id="path2940"
         style="fill:#ffffff;fill-opacity:1;fill-rule:nonzero;stroke:none" />
      <path
         d="m 387.09551,727.1479 c -2.4375,2.85 -5.8125,2.7375 -7.125,2.7375 -1.125,0 -4.0875,-0.15 -6.45,-2.7375 l 13.575,0"
         id="path2942"
         style="fill:#ffffff;fill-opacity:1;fill-rule:nonzero;stroke:none" />
      <path
         d="m 399.99551,710.5729 c -0.9,-1.2 -2.4375,-1.5375 -2.4375,-1.5375 l -2.7,0 0,1.5375 -5.6625,0 0,-6.75 9.825,0 c 0,0 5.1375,0.8625 6.9,6.75 l -5.925,0"
         id="path2944"
         style="fill:#ffffff;fill-opacity:1;fill-rule:nonzero;stroke:none" />
      <path
         d="m 389.19551,717.2479 0,-5.7375 5.6625,0 0,4.275 2.7,0 c 0,0 3.1125,-0.75 3.0375,-3.3375 0,-0.3375 -0.075,-0.675 -0.1875,-0.9375 l 5.6625,0 c 0.1125,0.3375 0.1125,0.6 0.1875,0.9375 -0.2625,1.8 -0.45,3.525 -1.2375,4.8 l -15.825,0"
         id="path2946"
         style="fill:#ffffff;fill-opacity:1;fill-rule:nonzero;stroke:none" />
      <path
         d="m 404.60801,718.1854 c -1.3875,2.325 -3.15,2.4 -3.15,2.4 l 1.125,1.6875 -7.125,0 -0.6,-1.0875 0,1.0875 -5.6625,0 0,-4.0875 15.4125,0"
         id="path2948"
         style="fill:#ffffff;fill-opacity:1;fill-rule:nonzero;stroke:none" />
      <path
         d="m 389.19551,723.2479 0,2.9625 5.6625,0 0,-2.9625 -5.6625,0 z"
         id="path2950"
         style="fill:#ffffff;fill-opacity:1;fill-rule:nonzero;stroke:none" />
      <path
         d="m 389.19551,727.1479 0,2.7375 5.6625,0 0,-2.7375 -5.6625,0 z"
         id="path2952"
         style="fill:#ffffff;fill-opacity:1;fill-rule:nonzero;stroke:none" />
      <path
         d="m 397.70801,726.2104 -1.725,-2.9625 7.2375,0 2.0625,2.9625 -7.575,0"
         id="path2954"
         style="fill:#ffffff;fill-opacity:1;fill-rule:nonzero;stroke:none" />
      <path
         d="m 405.99551,727.1479 1.725,2.7375 -7.9125,0 -1.575,-2.7375 7.7625,0"
         id="path2956"
         style="fill:#ffffff;fill-opacity:1;fill-rule:nonzero;stroke:none" />
      <path
         d="m 417.32051,710.5729 c -0.9,-1.4625 -2.1,-1.5375 -2.7,-1.5375 -0.6375,0 -1.8375,0 -2.55,1.5375 l -5.8875,0 c 1.5375,-6.75 6.525,-6.75 8.4375,-6.75 1.8,0 6.675,0 8.7,6.75 l -6,0"
         id="path2958"
         style="fill:#ffffff;fill-opacity:1;fill-rule:nonzero;stroke:none" />
      <path
         d="m 405.54551,717.2479 -0.075,-0.3375 c 0,-1.725 0.2625,-3.9375 0.525,-5.4 l 5.7375,0 c -0.3375,1.125 -0.6,3 -0.6,5.7375 l -5.5875,0"
         id="path2960"
         style="fill:#ffffff;fill-opacity:1;fill-rule:nonzero;stroke:none" />
      <path
         d="m 418.37051,717.2479 c 0,-0.1875 0,-0.075 0,-0.3375 0,-2.5875 -0.2625,-4.275 -0.7125,-5.4 0,0 6,0 5.925,0 0.2625,1.4625 0.525,3.6 0.525,5.7375 l -5.7375,0"
         id="path2962"
         style="fill:#ffffff;fill-opacity:1;fill-rule:nonzero;stroke:none" />
      <path
         d="m 405.99551,722.2729 c -0.2625,-1.1625 -0.45,-2.55 -0.45,-4.0875 l 5.6625,0 c 0,1.6125 0.2625,3.15 0.525,4.0875 l -5.7375,0"
         id="path2964"
         style="fill:#ffffff;fill-opacity:1;fill-rule:nonzero;stroke:none" />
      <path
         d="m 417.65801,722.2729 c 0.45,-0.9375 0.7875,-2.2125 0.8625,-4.0875 l 5.475,0 c -0.075,1.5375 -0.2625,3.075 -0.4125,4.0875 l -5.925,0"
         id="path2966"
         style="fill:#ffffff;fill-opacity:1;fill-rule:nonzero;stroke:none" />
      <path
         d="m 407.57051,726.2104 c -0.525,-0.825 -1.05,-1.6875 -1.3875,-2.9625 -0.1125,-0.1125 5.8875,0 5.8875,0 0.6375,1.425 2.025,1.425 2.55,1.425 0.4125,0 1.575,-0.075 2.5125,-1.425 0.075,0 6.1125,0 6.1125,0 -0.2625,1.0125 -0.6375,2.2125 -1.05,2.9625 l -14.625,0"
         id="path2968"
         style="fill:#ffffff;fill-opacity:1;fill-rule:nonzero;stroke:none" />
      <path
         d="m 421.48301,727.1479 c -2.1,2.6625 -5.55,2.7375 -6.8625,2.7375 -1.125,0 -4.2,-0.15 -6.375,-2.7375 l 13.2375,0"
         id="path2970"
         style="fill:#ffffff;fill-opacity:1;fill-rule:nonzero;stroke:none" />
      <path
         d="m 514.34051,725.80165 c 0.4,0.4025 0.6,0.88875 0.6,1.45875 0,0.57375 -0.2,1.06375 -0.6,1.4675 -0.40125,0.405 -0.88625,0.6075 -1.45875,0.6075 -0.5725,0 -1.05875,-0.2025 -1.45875,-0.6075 -0.3975,-0.40375 -0.5975,-0.89375 -0.5975,-1.4675 0,-0.57 0.2,-1.05625 0.60125,-1.45875 0.4025,-0.405 0.8875,-0.6075 1.455,-0.6075 0.57,0 1.05625,0.2025 1.45875,0.6075 z m 0.2375,-0.2325 c -0.4675,-0.465 -1.0325,-0.6975 -1.69625,-0.6975 -0.65875,0 -1.22125,0.2325 -1.6875,0.6975 -0.4675,0.46875 -0.70125,1.03125 -0.70125,1.69125 0,0.665 0.23125,1.23125 0.695,1.7 0.46625,0.46875 1.03,0.70375 1.69375,0.70375 0.66375,0 1.22875,-0.235 1.69625,-0.70375 0.4675,-0.47 0.70125,-1.0375 0.70125,-1.7 0,-0.66125 -0.23375,-1.225 -0.70125,-1.69125 z m -1.34125,1.58 c -0.0975,0.0387 -0.24375,0.0587 -0.44,0.0587 l -0.4175,0 0,-0.9525 0.395,0 c 0.25625,0 0.4425,0.0325 0.55875,0.0975 0.11625,0.065 0.175,0.19375 0.175,0.385 0,0.2025 -0.09,0.33875 -0.27125,0.41125 z m -1.32125,1.41875 0.46375,0 0,-1.0375 0.365,0 c 0.24625,0 0.4175,0.0288 0.51625,0.085 0.165,0.0975 0.2475,0.29875 0.2475,0.60375 l 0,0.20875 0.01,0.085 c 0.002,0.0113 0.004,0.0213 0.006,0.0287 0.002,0.009 0.005,0.0175 0.006,0.0263 l 0.435,0 -0.0175,-0.0325 c -0.01,-0.0213 -0.0175,-0.0675 -0.0225,-0.13625 -0.004,-0.07 -0.006,-0.135 -0.006,-0.19625 l 0,-0.1925 c 0,-0.1325 -0.0475,-0.26875 -0.14375,-0.4075 -0.0962,-0.14 -0.24625,-0.225 -0.45375,-0.25875 0.16375,-0.025 0.29125,-0.0675 0.3825,-0.12625 0.17125,-0.11125 0.2575,-0.28375 0.2575,-0.51875 0,-0.33125 -0.13625,-0.5525 -0.4075,-0.66625 -0.1525,-0.0625 -0.3925,-0.095 -0.71875,-0.095 l -0.92,0 0,2.63"
         id="path2972"
         style="fill:#ffffff;fill-opacity:1;fill-rule:nonzero;stroke:none" />
    </g>
  </g>
</svg>
