<?xml version="1.0" encoding="UTF-8" standalone="no"?>
<svg xmlns:rdf="http://www.w3.org/1999/02/22-rdf-syntax-ns#" xmlns="http://www.w3.org/2000/svg" height="314.615" width="341.366" version="1.1" xmlns:cc="http://creativecommons.org/ns#" xmlns:xlink="http://www.w3.org/1999/xlink" xmlns:dc="http://purl.org/dc/elements/1.1/">
 <defs>
  <radialGradient id="a" gradientUnits="userSpaceOnUse" cy="277.281" cx="386.728" gradientTransform="matrix(1.1913 0 0 1.19026 -74.048 -57.2574)" r="153.133">
   <stop stop-color="#fabc14" offset="0"/>
   <stop stop-color="#f47042" offset="1"/>
  </radialGradient>
 </defs>
 <g transform="translate(-229.036 -195.796)">
  <g>
   <path d="m311.156 214.344c-2.623-0.018-5.615 0.291-8.718 1.187-10.028 2.894-11.698 9.77-11.969 11.813-0.411 3.089 1.239 5.948 5.156 8.968 1.491 1.15 4.634 2.766 8.281 4.626l7.188 3.781c1.746 0.985 2.818 2.266 3.187 3.812 0.495 2.064-0.396 4.028-0.75 4.563-0.465 0.693-3.136 4.15-10 3.781-8.99-0.484-12.683-4.585-12.719-4.625l-0.937-1.094v8.406l0.375 0.188 0.594 0.25c1.444 0.679 4.132 1.962 12.562 1.906 16.199-0.108 19.973-8.925 20.063-12.312 0.102-3.716-3.593-7.36-7.094-9.532-2.917-1.814-8.963-4.483-9.219-4.593-0.085-0.031-2.462-0.728-6.031-3.813-3.496-3.023-1.641-7.047-0.719-8.218 1.113-1.412 4.382-3.844 9.563-3.938 5.287-0.098 10.573 3.681 10.625 3.719l0.875 0.625v-7.906l-1.031-0.282c-1.502-0.391-4.91-1.283-9.282-1.312zm-235.156 0.031l-1.0938 0.031-12.5 0.094 0.5626 0.844c2.1626 3.24 2.0327 4.395 2.0312 4.406-0.008 0.424 0.0974 32.466 0 35.844-0.0942 3.142-2.0425 5.043-2.0625 5.062l-0.9687 0.938 13.625-0.125-0.5626-0.813c-1.7928-2.643-1.9047-4.852-1.9062-4.875l0.0938-36.312c0-1.173 1.5082-3.447 2.0937-4.219l0.6875-0.875zm144.188 0l-0.969 0.031-13.938 0.094 1.344 0.969c3.037 2.155 4.639 3.761 4.656 3.781 0 0 15.367 16.119 17.781 18.656-2.073 2.229-13.664 14.632-15.843 16.813-2.36 2.361-7.047 5.872-7.094 5.906l-1.313 0.969 13.938 0.094-0.219-0.688c-0.045-0.145-0.062-0.316-0.062-0.469 0-0.761 0.471-1.573 0.687-1.875 0.005 0 12.4-13.796 14.688-16.344 2.271 2.457 14.202 15.423 15.281 16.688 0.425 0.495 0.531 0.886 0.531 1.156 0 0.273-0.104 0.406-0.125 0.438l-0.687 0.875 1.094 0.031h12.093l0.75-0.031c-2.557-0.758-6.869-5.494-6.906-5.531 0 0-14.906-15.742-17.281-18.25 2.26-2.4 15.78-16.744 17.968-18.844 2.333-2.229 4.48-3.425 4.5-3.438l1.907-1.031-2.157 0.031-12.187 0.094-0.031 0.5c-0.089 2.068-1.146 3.266-1.156 3.281 0 0-11.426 12.578-13.626 15-4.784-5.18-13.393-14.565-14.156-15.625-0.261-0.365-0.344-0.77-0.344-1.125 0-0.702 0.352-1.277 0.376-1.312l0.5-0.844zm49.124 0l0.626 0.875c2.332 3.261 2.003 5.509 2 5.531v0.031 0.063c0 0.303 0.1 30.249 0 34.125-0.098 3.629-2.108 5.541-2.126 5.562l-1 0.907 13.876 0.125-0.594-0.844c-2.413-3.438-2.036-5.509-2.032-5.531 0.014-1.443 0.104-32.788 0-35.188-0.088-2.16 2.166-4.601 2.188-4.625l0.812-0.906-13.75-0.125zm-250.218 0.031l0.5624 0.813c2.2047 3.39 1.8482 4.983 1.8438 5l-0.0312 0.062v0.094c0.001 0.324 0.0978 32.554 0 35.531-0.001 2.619-1.4844 4.698-1.5 4.719l-0.625 0.875h12.75l-0.4376-0.812c-1.9023-3.424-1.9374-5.357-1.9374-5.376v-16.281c5.1508 0.042 16.9692 1.98 17.0937 2l0.3125 0.063 4.9688-6.563h-22.375v-15.437c11.1834 0.064 21.4887 2.074 21.5937 2.094l0.3437 0.093 5.0626-6.875h-1.0626-36.5624zm64.375 0l0.5624 0.844c1.9443 2.861 1.8141 4.452 1.8126 4.469-0.002 0.385 0.098 32.828 0 35.906-0.0914 2.877-2.043 5.043-2.0626 5.063l-0.8437 0.937 13.4687-0.125-0.5-0.812c-1.6982-2.776-1.8437-4.416-1.8437-4.907v-0.187c0.005-0.065 0-10.886 0-14.563 14.9135 13.442 27.8065 20.334 27.9375 20.407l0.125 0.062h9.375l-1.625-1c-15.12-9.453-22.63-17.255-25.187-19.938 3.65-0.785 16.281-4.149 16.281-12.75 0-0.029 0.001-0.062 0-0.093-0.049-4.681-3.502-10.694-19.625-12.875l-0.75-0.125c-1.4519-0.31-5.8748-0.313-6.0628-0.313h-10.0624-1zm83.1252 0l-0.094 0.469c-0.059 0.355-0.418 0.965-0.625 1.281-0.23 0.339-23.147 34.353-24.937 36.938-1.76 2.541-6.949 7.417-7 7.468l-0.969 0.938h13.781l-0.125-0.625c-0.046-0.255-0.063-0.499-0.063-0.75 0-1.789 0.988-3.386 1-3.406 0 0 6.617-10.279 7.688-11.938 0.571 0.001 26.105 0.093 26.688 0.094 0.763 1.238 5.381 8.723 6.562 11 1.241 2.385 1.435 5.096 1.438 5.125l0.031 0.5h13.562l-1-0.938c-1.867-1.771-6.641-7.536-6.687-7.593-0.869-1.395-22.238-35.53-22.844-36.344-0.518-0.687-0.716-1.741-0.719-1.75l-0.062-0.469h-0.469-4.719-0.437zm-73.0628 3.969s19.0428-0.399 19.3438 9.469c0 10.676-17.8399 10.067-19.25 9.968 0-1.814-0.0938-19.437-0.0938-19.437zm75.0938 3.813l10.281 18.031h-21.625l11.344-18.031z" fill-rule="evenodd" transform="translate(229.036 195.796)"/>
   <path d="m274.344 283.5c-1.335 0-2.598 0.206-3.844 0.562-1.25 0.353-2.276 0.876-3.125 1.5-0.847 0.626-1.356 1.336-1.719 2.094-0.356 0.76-0.531 1.42-0.531 2 0 1.83 1.816 3.495 5.344 5.188l1.219 0.594c1.471 0.715 2.562 1.274 3.187 1.812 0.62 0.535 0.987 0.986 1.031 1.344 0.048 0.356 0.094 0.65 0.094 0.875 0 0.891-0.37 1.671-1.125 2.25-0.761 0.578-1.83 0.992-3.125 1.125-0.398 0.045-0.698 0.031-0.875 0.031-1.649 0-3.251-0.453-4.813-1.344-0.403-0.266-0.801-0.533-1.156-0.843v3c1.024 0.446 2.118 0.693 3.188 0.781 1.072 0.09 1.926 0.156 2.594 0.156 3.167 0 5.567-0.765 7.218-2.281 1.158-1.068 1.719-2.16 1.719-3.188 0-1.962-1.917-3.598-5.531-5.25l-1-0.437c-1.833-0.854-2.938-1.53-3.594-2.188-0.625-0.625-1-1.302-1-2.062 0-0.181 0.021-0.367 0.062-0.5 0-0.044 0.042-0.203 0.126-0.469 0.316-0.892 0.97-1.607 1.906-2.094 0.936-0.493 2.048-0.781 3.25-0.781 0.936 0 1.901 0.219 2.75 0.531 0.845 0.313 1.546 0.725 2.125 1.219v-2.906l-0.625-0.157c-1.159-0.311-2.408-0.562-3.75-0.562zm-195.406 0.094c-4.0595 0-7.5143 0.661-10.2813 2-2.7652 1.338-4.7246 3.227-5.75 5.594-0.5341 1.204-0.7812 2.35-0.7812 3.468 0 2.943 1.6992 5.353 5 7.188 3.3002 1.826 7.7011 2.781 13.1875 2.781 0.538 0 1.1563-0.063 1.7813-0.063 0.6264 0 1.1782 0.014 1.625-0.031 2.3198-0.133 4.6698-0.528 7.125-1.156-0.4006-0.713-0.625-1.806-0.625-3.187v-3.782c0-0.936 0.3466-1.791 1.0624-2.594h-5.1562l0.4688 1c0.2246 0.4 0.3301 0.699 0.375 0.876 0.044 0.181 0.0312 0.421 0.0312 0.687v5.781l-0.3438 0.094-0.75 0.188c-1.1621 0.268-2.2992 0.442-3.2812 0.531-0.98 0.09-2.0435 0.125-3.1562 0.125-4.1079 0-7.396-0.854-9.9376-2.594-2.5463-1.739-3.8124-3.921-3.8124-6.688 0-2.632 1.2661-4.785 3.8124-6.437 2.4078-1.604 5.4342-2.344 9.0938-2.344 1.3842 0 2.7188 0.093 3.9688 0.313 1.248 0.223 2.5014 0.534 3.75 0.937 1.2476 0.401 2.314 0.835 3.25 1.281v-2.593l-0.9688-0.219c-3.4345-0.801-6.6962-1.156-9.6875-1.156zm51.0315 0l-0.281 0.594-0.313 0.437-10.75 15.937c-0.755 1.113-1.627 2.096-2.563 3.032l-0.468 0.437-0.469 0.438h5.344l-0.063-0.438c-0.043-0.4 0.054-0.719 0.188-1.031 0.135-0.31 0.347-0.75 0.75-1.375l3.094-4.719h12.406l2.844 4.719c0.624 0.984 0.906 1.953 0.906 2.844h5.344l-0.313-0.313-0.531-0.562c-1.159-1.25-1.995-2.185-2.532-3.032l-9.968-15.874-0.313-0.469-0.219-0.625h-2.093zm35.687 0l2.406 1.968v16.188c0 0.848-0.183 1.651-0.718 2.406l-0.219 0.313h5.094c-0.403-0.401-0.647-0.781-0.781-1.094-0.132-0.313-0.157-0.865-0.157-1.625v-13.781l11.625 8.75 11.5-8.75v13.781c0 0.622-0.115 1.117-0.25 1.562-0.132 0.448-0.358 0.844-0.625 1.157h5.094l-0.437-0.344c-0.272-0.313-0.453-0.62-0.5-0.844-0.042-0.224-0.094-0.73-0.094-1.531v-16.281l2.406-1.875h-5.031c0.086 0.179 0.125 0.336 0.125 0.468 0 0.31-0.298 0.728-0.969 1.219l-11.219 8.531-11.5-8.624c-0.402-0.308-0.625-0.61-0.625-0.969 0-0.22 0.087-0.446 0.219-0.625h-5.344zm59.219 0c0.583 0.798 0.844 1.656 0.844 2.594v15.562c0 0.668-0.209 1.438-0.657 2.375l-0.218 0.344h14.968l2.469-3.157c-2.229 0.539-4.457 0.98-6.687 1.25-2.233 0.268-4.469 0.407-6.656 0.407v-8.75c1.293 0 2.616 0.036 4 0.219 1.381 0.177 2.727 0.419 4.062 0.687l1.969-2.469h-10.031v-7.468c1.694 0 3.416 0.116 5.156 0.25 1.745 0.132 3.461 0.359 5.156 0.624l1.906-2.468h-16.281zm-94.156 3.25l4.656 8.218h-9.875l5.219-8.218z" fill-rule="evenodd" transform="translate(229.036 195.796)"/>
   <path d="m440.222 205.796c38.415 9.7925 73.3375 21.0275 83.9638 55.0388 5.08125 16.2562 0.40875 29.89-11.5412 42.2112-19.4325 20.0525-43.1188 28.5575-74.3975 33.4162-19.285 2.99375-35.7075 3.49875-49.9762 2.40625-0.51125-0.0375-8.22375-0.65375-13.4475-1.34125 24.0212 5.4175 44.435 5.94125 63.0538 3.57 28.2925-3.6 47.22-6.27375 71.58-22.565 36.3888-24.3112 51.17-60.735 16.9412-93.1325 20.865 18.1262 27.51 33.0338 24.2088 55.4762-2.19125 14.875-15.9162 31.9625-27.6725 41.0938-46.92 36.3912-133.49 44.83-188.339 20.0862-13.647-6.1575-23.5689-12.8825-33.5909-24.2675 4.85687 11.6888 14.8804 24.4425 39.3091 36.4688 59.2042 29.1538 152.193 17.5125 209.38-11.2662-27.0038 16.9538-55.9 27.0688-87.4138 31.8825-50.1475 7.655-112.168 4.27875-155.292-24.3412-11.8198-7.845-20.9652-15.6925-27.8476-28.345-7.03275-12.9325-6.04888-33.2012 2.023-45.5788 15.2778-23.42 45.9058-36.335 72.4609-41.6425-30.0332 2.10375-61.2475 12.3062-82.4761 34.3662-18.183 18.895-28.1406 43.0575-19.8701 69.33-8.94813-14.8262-7.21338-33.9112-0.51063-49.3888 4.22113-9.7525 11.353-19.0462 19.5049-25.8438 33.4174-27.8662 62.8174-35.6762 105.54-37.9075 28.5912-1.49125 77.0875 3.925 91.26 33.3838 4.6525 9.66 1.4 18.7088-4.98875 26.68-5.57125 6.955-12.2512 11.0838-20.3425 14.5738 12.4525-2.46625 24.5638-9.18625 33.0275-18.725 7.44625-8.3975 8.425-18.3412 3.96-28.395-12.5288-28.2188-65.3912-38.2425-93.3-39.615 19.4862 0.56375 37.5512 2.9125 56.2562 8.6325 17.5262 5.35875 47.8862 18.4325 50.0088 42.4075 1.17875 13.2975-3.2775 22.525-13.6938 31.3725-30.6675 26.0575-72.5275 30.7588-110.566 20.7125-16.9738-4.4775-43.7599-19.13-34.5075-40.8325-1.38863 44.995 114.082 61.1188 148.748 5.615-42.5925 54.0925-146.444 30.5625-138.454-4.42625 0.99125-4.3425 3.685-7.93 7.549-10.1462-2.11687 2.68625-3.41138 5.8275-3.60613 9.25875-0.39212 6.9175 7.12113 15.1188 12.6199 18.7275 26.0475 17.0975 111.704 11.8938 98.6575-31.9362 5.17875 38.4625-64.6638 48.5425-87.5275 28.2088 9.57125 2.75 17.3825 5.34625 27.5588 5.34625 17.7225 0 46.4838-5.9 44.6362-29.4562-2.0075-25.6038-53.3088-32.6262-72.535-31.8875-10.7462 0.41375-20.6 2.2-30.8356 5.49125 24.5581-6.3075 64.8056-7.1025 84.0944 11.6875-63.1138-37.1412-170.856 23.0462-85.8338 75.0375-19.0776-15.765-39.0014-34.1612-18.7035-59.1538 6.22162-7.66125 12.4048-11.1538 21.8212-13.8062-9.03863 3.42875-14.4262 8.99-17.6391 18.0975-13.671 38.7625 49.1814 53.9025 76.2251 55.5838 18.7812 1.1675 51.8188-2.1125 69.2175-9.275-7.09375 2.0875-18.0712 4.1125-23.9888 4.27 29.605-7.60875 35.225-9.8875 47.98-19.1488 21.03-15.2712 29.8262-41.3762 6.92125-66.2875-17.965-19.545-35.5988-23.5475-59.6088-31.7212" fill="url(#a)"/>
  </g>
  <g>
   <path d="m240.951 400.827h317.444"/>
   <path d="m240.951 400.827h317.444" stroke="#000" stroke-linecap="round" stroke-width="3.75"/>
   <path d="m241.044 466.003h317.446"/>
   <path d="m241.044 466.003h317.446" stroke="#000" stroke-linecap="round" stroke-width="3.75"/>
  </g>
 </g>
</svg>
